<svg width="24" height="24" viewBox="0 0 24 24" fill="none" xmlns="http://www.w3.org/2000/svg">
<path d="M19.3813 4.10107H4.57227V17.5691H19.3823V4.10107H19.3813Z" fill="white"/>
<path fill-rule="evenodd" clip-rule="evenodd" d="M23.968 11.984C23.968 18.603 18.602 23.968 11.984 23.968C5.365 23.968 0 18.603 0 11.984C0 5.365 5.365 0 11.984 0C18.602 0 23.968 5.365 23.968 11.984ZM8.588 16.753H6.262C5.773 16.753 5.532 16.753 5.385 16.659C5.3072 16.6084 5.24239 16.5403 5.19583 16.46C5.14927 16.3797 5.12227 16.2896 5.117 16.197C5.108 16.023 5.229 15.811 5.47 15.387L11.213 5.265C11.457 4.835 11.581 4.62 11.737 4.541C11.8201 4.49892 11.9119 4.47698 12.005 4.47698C12.0981 4.47698 12.1899 4.49892 12.273 4.541C12.429 4.621 12.553 4.835 12.797 5.265L13.977 7.325L13.983 7.336C14.247 7.797 14.381 8.031 14.44 8.276C14.504 8.54525 14.504 8.82575 14.44 9.095C14.38 9.342 14.248 9.578 13.98 10.046L10.964 15.378L10.956 15.392C10.69 15.857 10.556 16.092 10.369 16.27C10.1671 16.4632 9.92195 16.6055 9.654 16.685C9.409 16.753 9.136 16.753 8.588 16.753ZM14.461 16.753H17.794C18.285 16.753 18.533 16.753 18.68 16.656C18.7583 16.6053 18.8234 16.5366 18.87 16.4558C18.9166 16.375 18.9434 16.2842 18.948 16.191C18.957 16.023 18.838 15.819 18.607 15.42C18.5989 15.406 18.5909 15.392 18.583 15.378L16.913 12.523L16.895 12.49C16.66 12.094 16.542 11.893 16.39 11.816C16.3075 11.7739 16.2162 11.7519 16.1235 11.7519C16.0308 11.7519 15.9395 11.7739 15.857 11.816C15.704 11.896 15.58 12.104 15.336 12.526L13.672 15.381L13.667 15.391C13.423 15.811 13.301 16.021 13.31 16.194C13.3153 16.287 13.3423 16.3776 13.3888 16.4583C13.4353 16.5391 13.5001 16.6078 13.578 16.659C13.722 16.753 13.97 16.753 14.461 16.753Z" fill="#E84142"/>
</svg>
