<svg width="24" height="24" viewBox="0 0 24 24" fill="none" xmlns="http://www.w3.org/2000/svg">
<path fill-rule="evenodd" clip-rule="evenodd" d="M12 0C18.6279 0 24 5.37212 24 12C24 18.6279 18.6279 24 12 24C5.37212 24 0 18.6279 0 12C0 5.37212 5.37212 0 12 0Z" fill="#F0B90B"/>
<path d="M6.59558 12L6.60424 15.1731L9.30039 16.7596V18.6173L5.02635 16.1106V11.0721L6.59558 12ZM6.59558 8.82693V10.676L5.02539 9.74712V7.89808L6.59558 6.96924L8.17347 7.89808L6.59558 8.82693ZM10.4264 7.89808L11.9965 6.96924L13.5744 7.89808L11.9965 8.82693L10.4264 7.89808Z" fill="white"/>
<path d="M7.72949 14.5154V12.6577L9.29968 13.5865V15.4356L7.72949 14.5154ZM10.4256 17.425L11.9958 18.3539L13.5737 17.425V19.274L11.9958 20.2029L10.4256 19.274V17.425ZM15.8256 7.89808L17.3958 6.96924L18.9737 7.89808V9.74712L17.3958 10.676V8.82693L15.8256 7.89808ZM17.3958 15.1731L17.4045 12L18.9747 11.0712V16.1096L14.7006 18.6164V16.7587L17.3958 15.1731Z" fill="white"/>
<path d="M16.2704 14.5154L14.7002 15.4356V13.5866L16.2704 12.6577V14.5154Z" fill="white"/>
<path d="M16.2699 9.48462L16.2785 11.3423L13.5747 12.9289V16.1096L12.0045 17.0298L10.4343 16.1096V12.9289L7.73045 11.3423V9.48462L9.30738 8.55577L11.9949 10.15L14.6987 8.55577L16.2766 9.48462H16.2699ZM7.72949 6.3125L11.9958 3.79712L16.2699 6.3125L14.6997 7.24135L11.9958 5.64712L9.29968 7.24135L7.72949 6.3125Z" fill="white"/>
</svg>
