<svg width="24" height="24" viewBox="0 0 24 24" fill="none" xmlns="http://www.w3.org/2000/svg">
<path d="M24 12C24 5.37258 18.6274 0 12 0C5.37258 0 0 5.37258 0 12C0 18.6274 5.37258 24 12 24C18.6274 24 24 18.6274 24 12Z" fill="#26B7EA"/>
<path d="M11.3433 5.14579C11.5458 5.0498 11.7671 5 11.9913 5C12.2154 5 12.4367 5.0498 12.6393 5.14579L16.4033 7.13779C16.4983 7.18065 16.5814 7.24619 16.6452 7.32867C16.709 7.41114 16.7516 7.50801 16.7693 7.61079V17.6158C16.7603 17.7278 16.7212 17.8353 16.656 17.9269C16.5909 18.0184 16.5022 18.0906 16.3993 18.1358L12.6413 20.1258C12.4387 20.2217 12.2174 20.2715 11.9933 20.2715C11.7691 20.2715 11.5478 20.2217 11.3453 20.1258L7.58027 18.1358C7.47839 18.0897 7.39096 18.0168 7.32737 17.9249C7.26377 17.8329 7.2264 17.7254 7.21927 17.6138V7.60979C7.23389 7.50664 7.27464 7.40895 7.33765 7.32599C7.40066 7.24303 7.48383 7.17755 7.57927 7.13579L11.3433 5.14579ZM16.1803 13.1918L12.6413 15.0648C12.4387 15.1607 12.2174 15.2105 11.9933 15.2105C11.7691 15.2105 11.5478 15.1607 11.3453 15.0648L7.81127 13.1958V17.5958L11.3433 19.4548C11.5363 19.5768 11.7533 19.6538 11.9793 19.6798H11.9923C12.2128 19.6577 12.4257 19.5866 12.6153 19.4718L16.1803 17.5798V13.1918ZM6.60727 17.3978C6.59027 17.6758 6.63527 17.9538 6.74027 18.2118C6.83027 18.3758 6.96027 18.5118 7.12127 18.6078L7.13327 18.6158C7.17727 18.6458 7.22527 18.6758 7.28527 18.7128L7.35527 18.7558L7.56827 18.8858L7.26327 19.3928L7.02327 19.2488L6.98327 19.2238C6.91427 19.1808 6.85727 19.1478 6.80327 19.1088C6.52437 18.9331 6.30183 18.681 6.16212 18.3824C6.02242 18.0839 5.97145 17.7515 6.01527 17.4248V17.3978H6.60727ZM11.6963 10.5098C11.6701 10.5188 11.6447 10.5298 11.6203 10.5428L7.85727 12.5328L7.84627 12.5388H7.85227L7.86027 12.5438L11.6223 14.5348C11.6463 14.5478 11.6723 14.5588 11.6983 14.5678L11.6963 10.5098ZM12.2883 10.5098V14.5728C12.3144 14.5638 12.3398 14.5527 12.3643 14.5398L16.1263 12.5498L16.1383 12.5428H16.1323L16.1233 12.5388L12.3643 10.5418C12.3398 10.5292 12.3144 10.5185 12.2883 10.5098ZM16.1803 8.31979L12.8063 10.1048L16.1813 11.8908V8.31979H16.1803ZM7.81127 8.32379V11.8868L11.1783 10.1048L7.81127 8.32379ZM12.3643 5.66979C12.2469 5.61876 12.1203 5.59242 11.9923 5.59242C11.8643 5.59242 11.7376 5.61876 11.6203 5.66979L7.85727 7.65979L7.84527 7.66679H7.85127L7.85927 7.67079L11.6193 9.66779C11.7368 9.71891 11.8636 9.74529 11.9918 9.74529C12.1199 9.74529 12.2467 9.71891 12.3643 9.66779L16.1263 7.67679L16.1383 7.67079H16.1323L16.1233 7.66579L12.3643 5.66979ZM16.7363 5.88779L16.9763 6.03179L17.0163 6.05679C17.0863 6.09979 17.1433 6.13279 17.1963 6.17179C17.4754 6.34713 17.6982 6.59898 17.8383 6.89735C17.9783 7.19572 18.0297 7.52805 17.9863 7.85479V7.88179H17.3933C17.4106 7.60457 17.3651 7.32701 17.2603 7.06979C17.1715 6.90547 17.0398 6.76828 16.8793 6.67279L16.8673 6.66579C16.8174 6.63193 16.7667 6.59925 16.7153 6.56779L16.6433 6.52679L16.4303 6.39679L16.7363 5.88779Z" fill="white"/>
</svg>
