<svg width="32" height="32" viewBox="0 0 32 32" fill="none" xmlns="http://www.w3.org/2000/svg">
<g clip-path="url(#clip0_1374_91)">
<path d="M16 32C24.8366 32 32 24.8366 32 16C32 7.16344 24.8366 0 16 0C7.16344 0 0 7.16344 0 16C0 24.8366 7.16344 32 16 32Z" fill="url(#paint0_linear_1374_91)"/>
<path d="M25.488 13.3601H23.5891C22.544 10.459 19.7331 8.46924 16.0262 8.46924H9.93023V13.3601H7.81311V15.115H9.93023V16.955H7.81311V18.7092H9.93023V23.5412H16.0262C19.6902 23.5412 22.4794 21.5681 23.5513 18.7092H25.4874V16.9544H23.9782C24.0168 16.6394 24.0364 16.3225 24.0371 16.0052V15.9624C24.0371 15.6744 24.0211 15.3915 23.9942 15.1144H25.4931V13.3595L25.488 13.3601ZM11.6371 10.0321H16.0262C18.7462 10.0321 20.7674 11.371 21.7011 13.355H11.6371V10.0321ZM16.0262 21.963H11.6371V18.7041H21.6902C20.752 20.6561 18.736 21.9624 16.0262 21.9624V21.963ZM22.2713 16.043C22.2719 16.3464 22.2505 16.6495 22.2074 16.9499H11.6371V15.1099H22.2131C22.2518 15.4053 22.2715 15.7028 22.272 16.0008L22.2713 16.043Z" fill="white"/>
</g>
<defs>
<linearGradient id="paint0_linear_1374_91" x1="16" y1="36.544" x2="16" y2="-3.36" gradientUnits="userSpaceOnUse">
<stop stop-color="#F9A606"/>
<stop offset="1" stop-color="#FBCC5F"/>
</linearGradient>
<clipPath id="clip0_1374_91">
<rect width="32" height="32" fill="white"/>
</clipPath>
</defs>
</svg>
