<svg width="25" height="22" viewBox="0 0 25 22" fill="none" xmlns="http://www.w3.org/2000/svg">
<path d="M24.6154 17.7264L15.02 1.43104C14.6795 0.848617 14.1399 0.402793 13.4966 0.172626C12.8534 -0.0575418 12.1478 -0.0575418 11.5045 0.172626C10.8613 0.402793 10.3216 0.848617 9.98113 1.43104L0.385262 17.7264C-0.130371 18.6085 -0.128328 19.6928 0.390878 20.573C0.909573 21.4531 1.86732 21.9965 2.90471 21.9995H22.0954C23.1328 21.9965 24.0901 21.4536 24.6093 20.573C25.1285 19.6928 25.1305 18.6085 24.6149 17.7264H24.6154ZM23.07 19.6968C22.9735 19.8664 22.8321 20.007 22.6606 20.1041C22.489 20.2012 22.294 20.2512 22.0964 20.2487H2.90471C2.70663 20.2512 2.51161 20.2012 2.34058 20.1041C2.16904 20.007 2.02763 19.8664 1.93114 19.6968C1.83056 19.5317 1.77696 19.3421 1.77696 19.1494C1.77696 18.9568 1.83005 18.7676 1.93114 18.602L11.5352 2.30668C11.6643 2.08201 11.8706 1.90989 12.1177 1.82082C12.3643 1.73176 12.6354 1.73176 12.8825 1.82082C13.1295 1.90989 13.3358 2.08201 13.465 2.30668L23.069 18.602C23.1696 18.7676 23.2232 18.9568 23.2232 19.1494C23.2232 19.3421 23.1701 19.5312 23.069 19.6968H23.07ZM11.6072 13.9441V6.54476C11.6072 6.23203 11.7777 5.94282 12.0539 5.78621C12.3301 5.62959 12.6711 5.63009 12.9473 5.78621C13.2235 5.94232 13.394 6.23153 13.394 6.54476V13.9441C13.394 14.2569 13.2235 14.5461 12.9473 14.7027C12.6711 14.8588 12.3301 14.8588 12.0539 14.7027C11.7777 14.5461 11.6072 14.2569 11.6072 13.9441ZM13.8673 17.184C13.8673 17.5393 13.7233 17.88 13.467 18.1312C13.2107 18.3824 12.8631 18.5235 12.5006 18.5235C12.1381 18.5235 11.7904 18.3824 11.5342 18.1312C11.2779 17.88 11.1339 17.5393 11.1339 17.184C11.1339 16.8287 11.2779 16.488 11.5342 16.2368C11.7904 15.9856 12.1381 15.8445 12.5006 15.8445C12.8625 15.847 13.2087 15.9886 13.4645 16.2393C13.7202 16.49 13.8652 16.8297 13.8673 17.184Z" fill="#E84142"/>
</svg>
