<svg width="32" height="32" viewBox="0 0 32 32" fill="none" xmlns="http://www.w3.org/2000/svg">
<g clip-path="url(#clip0_1374_101)">
<path d="M16 32C24.8365 32 32 24.8365 32 16C32 7.1635 24.8365 0 16 0C7.1635 0 0 7.16337 0 16C0 24.8365 7.16337 32 16 32Z" fill="white"/>
<path d="M16.4352 23.536V30.9065L25.5447 18.0703L16.4352 23.536ZM25.2136 15.6683L16.4352 1.09326V11.6933L25.2136 15.6683Z" fill="#3B3735"/>
<path d="M16.4352 12.519V21.5458L25.1307 16.494L16.4352 12.519V12.519Z" fill="#1F1D19"/>
<path d="M6.82825 15.6683L15.6065 1.09326V11.6933L6.82825 15.6683V15.6683Z" fill="#959190"/>
<path d="M15.6058 12.519V21.5458L6.91028 16.494L15.6058 12.519V12.519Z" fill="#403C3A"/>
<path d="M15.6064 23.5361V30.9066L6.49689 18.0703L15.6064 23.5361Z" fill="#959190"/>
</g>
<defs>
<clipPath id="clip0_1374_101">
<rect width="32" height="32" fill="white"/>
</clipPath>
</defs>
</svg>
