<svg width="52" height="48" viewBox="0 0 52 48" fill="none" xmlns="http://www.w3.org/2000/svg">
<path d="M48.5098 1L29 15.4902L32.6078 6.94118L48.5098 1Z" fill="#E2761B" stroke="#E2761B" stroke-linecap="round" stroke-linejoin="round"/>
<path d="M3.47044 1L22.8234 15.6275L19.392 6.94118L3.47044 1ZM41.4901 34.5882L36.294 42.549L47.4116 45.6078L50.6077 34.7647L41.4901 34.5882ZM1.41162 34.7647L4.58809 45.6078L15.7057 42.549L10.5097 34.5882L1.41162 34.7647Z" fill="#E4761B" stroke="#E4761B" stroke-linecap="round" stroke-linejoin="round"/>
<path d="M15.0785 21.137L11.9805 25.8233L23.0197 26.3135L22.6275 14.4507L15.0785 21.137ZM36.902 21.137L29.255 14.3135L29.0001 26.3135L40.0197 25.8233L36.902 21.137ZM15.706 42.5488L22.3334 39.3135L16.6079 34.8429L15.706 42.5488ZM29.6471 39.3135L36.2942 42.5488L35.3726 34.8429L29.6471 39.3135Z" fill="#E4761B" stroke="#E4761B" stroke-linecap="round" stroke-linejoin="round"/>
<path d="M36.294 42.5488L29.647 39.3135L30.1764 43.6468L30.1176 45.4703L36.294 42.5488ZM15.7058 42.5488L21.8823 45.4703L21.8431 43.6468L22.3333 39.3135L15.7058 42.5488Z" fill="#D7C1B3" stroke="#D7C1B3" stroke-linecap="round" stroke-linejoin="round"/>
<path d="M21.9803 31.9806L16.4509 30.3532L20.3529 28.5688L21.9803 31.9806ZM29.9999 31.9806L31.6274 28.5688L35.549 30.3532L29.9999 31.9806Z" fill="#233447" stroke="#233447" stroke-linecap="round" stroke-linejoin="round"/>
<path d="M15.7058 42.5492L16.647 34.5884L10.5098 34.7649L15.7058 42.5492ZM35.3529 34.5884L36.2941 42.5492L41.4902 34.7649L35.3529 34.5884ZM40.0196 25.8237L29 26.3139L30.0196 31.9806L31.647 28.5688L35.5686 30.3531L40.0196 25.8237ZM16.4509 30.3531L20.3725 28.5688L21.9804 31.9806L23.0196 26.3139L11.9804 25.8237L16.4509 30.3531Z" fill="#CD6116" stroke="#CD6116" stroke-linecap="round" stroke-linejoin="round"/>
<path d="M11.9805 25.8237L16.6079 34.8433L16.4511 30.3531L11.9805 25.8237ZM35.5687 30.3531L35.3726 34.8433L40.0197 25.8237L35.5687 30.3531ZM23.0197 26.3139L21.9805 31.9806L23.2746 38.6669L23.5687 29.8629L23.0197 26.3139ZM29.0001 26.3139L28.4707 29.8433L28.706 38.6669L30.0197 31.9806L29.0001 26.3139Z" fill="#E4751F" stroke="#E4751F" stroke-linecap="round" stroke-linejoin="round"/>
<path d="M30.0196 31.9805L28.7058 38.6668L29.647 39.3138L35.3725 34.8432L35.5686 30.353L30.0196 31.9805ZM16.4509 30.353L16.6078 34.8432L22.3333 39.3138L23.2745 38.6668L21.9803 31.9805L16.4509 30.353Z" fill="#F6851B" stroke="#F6851B" stroke-linecap="round" stroke-linejoin="round"/>
<path d="M30.1176 45.4704L30.1764 43.6469L29.6862 43.2155H22.294L21.8431 43.6469L21.8823 45.4704L15.7058 42.5488L17.8627 44.3135L22.2352 47.3527H29.745L34.1372 44.3135L36.294 42.5488L30.1176 45.4704Z" fill="#C0AD9E" stroke="#C0AD9E" stroke-linecap="round" stroke-linejoin="round"/>
<path d="M29.6472 39.3136L28.706 38.6665H23.2746L22.3335 39.3136L21.8433 43.6469L22.2942 43.2155H29.6864L30.1766 43.6469L29.6472 39.3136Z" fill="#161616" stroke="#161616" stroke-linecap="round" stroke-linejoin="round"/>
<path d="M49.3333 16.4314L51 8.43137L48.5098 1L29.6471 15L36.902 21.1373L47.1569 24.1373L49.4314 21.4902L48.451 20.7843L50.0196 19.3529L48.8039 18.4118L50.3726 17.2157L49.3333 16.4314ZM1 8.43137L2.66667 16.4314L1.60784 17.2157L3.17647 18.4118L1.98039 19.3529L3.54902 20.7843L2.56863 21.4902L4.82353 24.1373L15.0784 21.1373L22.3333 15L3.47059 1L1 8.43137Z" fill="#763D16" stroke="#763D16" stroke-linecap="round" stroke-linejoin="round"/>
<path d="M47.1567 24.137L36.9018 21.137L40.0195 25.8233L35.3724 34.8429L41.4901 34.7644H50.6077L47.1567 24.137ZM15.0783 21.137L4.82339 24.137L1.41162 34.7644H10.5097L16.6077 34.8429L11.9802 25.8233L15.0783 21.137ZM28.9999 26.3135L29.6469 14.9997L32.6273 6.94092H19.392L22.3332 14.9997L23.0195 26.3135L23.2548 29.8821L23.2744 38.6664H28.7057L28.745 29.8821L28.9999 26.3135Z" fill="#F6851B" stroke="#F6851B" stroke-linecap="round" stroke-linejoin="round"/>
</svg>
