<svg width="48" height="48" viewBox="0 0 48 48" fill="none" xmlns="http://www.w3.org/2000/svg">
<path d="M24 48C37.2548 48 48 37.2548 48 24C48 10.7452 37.2548 0 24 0C10.7452 0 0 10.7452 0 24C0 37.2548 10.7452 48 24 48Z" fill="#2775C9"/>
<path d="M23.625 41.25C20.1391 41.25 16.7315 40.2163 13.8331 38.2797C10.9347 36.343 8.67563 33.5904 7.34163 30.3698C6.00764 27.1493 5.6586 23.6055 6.33867 20.1865C7.01873 16.7676 8.69735 13.6272 11.1623 11.1623C13.6272 8.69735 16.7676 7.01873 20.1865 6.33867C23.6055 5.6586 27.1493 6.00764 30.3698 7.34163C33.5904 8.67563 36.343 10.9347 38.2797 13.8331C40.2163 16.7315 41.25 20.1391 41.25 23.625C41.25 28.2994 39.3931 32.7824 36.0878 36.0878C32.7824 39.3931 28.2994 41.25 23.625 41.25ZM22.575 17.085C21.6107 17.1328 20.699 17.5394 20.0191 18.2249C19.3391 18.9104 18.94 19.8253 18.9 20.79C18.9 22.605 20.01 23.79 22.365 24.285L24.015 24.675C25.62 25.05 26.28 25.59 26.28 26.505C26.28 27.42 25.125 28.32 23.625 28.32C23.0922 28.3689 22.5564 28.2667 22.0789 28.0254C21.6014 27.784 21.2016 27.413 20.925 26.955C20.8431 26.7812 20.7137 26.6341 20.5518 26.5306C20.39 26.4271 20.2021 26.3714 20.01 26.37H19.125C19.057 26.3826 18.9921 26.4086 18.9341 26.4463C18.8761 26.4841 18.8261 26.533 18.7871 26.5901C18.7481 26.6473 18.7207 26.7116 18.7066 26.7794C18.6925 26.8471 18.692 26.917 18.705 26.985C18.9206 27.8648 19.4218 28.6484 20.1302 29.2129C20.8386 29.7775 21.7143 30.0912 22.62 30.105V31.365C22.62 31.6455 22.7314 31.9145 22.9297 32.1128C23.1281 32.3111 23.397 32.4225 23.6775 32.4225C23.958 32.4225 24.227 32.3111 24.4253 32.1128C24.6236 31.9145 24.735 31.6455 24.735 31.365V30.09C25.7592 30.0784 26.7384 29.6674 27.464 28.9446C28.1897 28.2217 28.6044 27.2441 28.62 26.22C28.62 24.315 27.525 23.22 24.93 22.665L23.43 22.335C21.93 21.96 21.225 21.465 21.225 20.625C21.225 19.785 22.125 18.855 23.625 18.855C24.0974 18.8057 24.574 18.8941 24.9972 19.1097C25.4204 19.3253 25.7722 19.6589 26.01 20.07C26.1064 20.2753 26.259 20.4491 26.4502 20.5713C26.6413 20.6934 26.8632 20.7588 27.09 20.76H27.795C27.9553 20.7208 28.0938 20.6203 28.1808 20.48C28.2677 20.3398 28.2962 20.171 28.26 20.01C28.0568 19.1977 27.6022 18.4702 26.9611 17.9315C26.3201 17.3928 25.5252 17.0703 24.69 17.01V15.975C24.69 15.6945 24.5786 15.4256 24.3803 15.2272C24.182 15.0289 23.913 14.9175 23.6325 14.9175C23.352 14.9175 23.0831 15.0289 22.8847 15.2272C22.6864 15.4256 22.575 15.6945 22.575 15.975V17.085ZM10.41 23.625C10.4117 26.3881 11.2815 29.0809 12.8964 31.3229C14.5113 33.5649 16.7898 35.243 19.41 36.12H19.62C19.799 36.12 19.9707 36.0489 20.0973 35.9223C20.2239 35.7957 20.295 35.624 20.295 35.445V35.13C20.2955 34.8508 20.2131 34.5777 20.0582 34.3454C19.9033 34.1131 19.6829 33.9319 19.425 33.825C17.3844 33.0014 15.6365 31.5867 14.4057 29.7625C13.1748 27.9384 12.5172 25.7881 12.5172 23.5875C12.5172 21.387 13.1748 19.2366 14.4057 17.4125C15.6365 15.5883 17.3844 14.1737 19.425 13.35C19.6818 13.2457 19.9016 13.0673 20.0566 12.8376C20.2115 12.6078 20.2945 12.3371 20.295 12.06V11.715C20.296 11.6137 20.2725 11.5137 20.2266 11.4234C20.1807 11.3331 20.1136 11.2552 20.0312 11.1963C19.9488 11.1374 19.8534 11.0993 19.7531 11.0851C19.6528 11.071 19.5505 11.0812 19.455 11.115C16.824 11.9851 14.534 13.6622 12.9103 15.9079C11.2866 18.1536 10.4117 20.8538 10.41 23.625ZM36.84 23.625C36.8351 20.8645 35.964 18.1751 34.3493 15.936C32.7346 13.697 30.4578 12.0212 27.84 11.145H27.615C27.428 11.145 27.2487 11.2193 27.1165 11.3515C26.9843 11.4837 26.91 11.663 26.91 11.85V12.075C26.9161 12.3643 27.0057 12.6457 27.168 12.8852C27.3304 13.1248 27.5585 13.3122 27.825 13.425C29.8609 14.2511 31.6041 15.6658 32.8314 17.4883C34.0587 19.3107 34.7143 21.4579 34.7143 23.655C34.7143 25.8522 34.0587 27.9993 32.8314 29.8217C31.6041 31.6442 29.8609 33.0589 27.825 33.885C27.5636 33.999 27.3401 34.1851 27.1807 34.4215C27.0213 34.658 26.9326 34.935 26.925 35.22V35.475C26.9263 35.5862 26.9539 35.6955 27.0055 35.794C27.0571 35.8926 27.1313 35.9775 27.2219 36.0418C27.3126 36.1062 27.4173 36.1482 27.5273 36.1644C27.6373 36.1806 27.7496 36.1705 27.855 36.135C30.4749 35.2546 32.7518 33.5732 34.3641 31.3284C35.9764 29.0836 36.8425 26.3888 36.84 23.625Z" fill="white"/>
</svg>
