<svg width="32" height="32" viewBox="0 0 32 32" fill="none" xmlns="http://www.w3.org/2000/svg">
<g clip-path="url(#clip0_1374_80)">
<path d="M16 32C24.8366 32 32 24.8366 32 16C32 7.16344 24.8366 0 16 0C7.16344 0 0 7.16344 0 16C0 24.8366 7.16344 32 16 32Z" fill="#26A17B"/>
<path fill-rule="evenodd" clip-rule="evenodd" d="M17.922 17.3828V17.3808C17.812 17.3888 17.245 17.4228 15.98 17.4228C14.97 17.4228 14.259 17.3928 14.009 17.3808V17.3838C10.121 17.2128 7.21899 16.5358 7.21899 15.7258C7.21899 14.9168 10.121 14.2398 14.009 14.0658V16.7098C14.263 16.7278 14.991 16.7708 15.997 16.7708C17.204 16.7708 17.809 16.7208 17.922 16.7108V14.0678C21.802 14.2408 24.697 14.9178 24.697 15.7258C24.697 16.5358 21.802 17.2108 17.922 17.3828ZM17.922 13.7928V11.4268H23.336V7.81885H8.59499V11.4268H14.009V13.7918C9.60899 13.9938 6.29999 14.8658 6.29999 15.9098C6.29999 16.9538 9.60899 17.8248 14.009 18.0278V25.6098H17.922V18.0258C22.315 17.8238 25.616 16.9528 25.616 15.9098C25.616 14.8668 22.315 13.9958 17.922 13.7928Z" fill="white"/>
</g>
<defs>
<clipPath id="clip0_1374_80">
<rect width="32" height="32" fill="white"/>
</clipPath>
</defs>
</svg>
