<svg width="50" height="31" viewBox="0 0 50 31" fill="none" xmlns="http://www.w3.org/2000/svg">
<path d="M10.236 5.98754C18.3899 -1.99582 31.61 -1.99582 39.764 5.98754L40.7453 6.94832C41.1529 7.34754 41.1529 7.99468 40.7453 8.3939L37.3884 11.6806C37.1845 11.8802 36.854 11.8802 36.6501 11.6806L35.2997 10.3585C29.6113 4.78903 20.3886 4.78903 14.7002 10.3585L13.254 11.7744C13.0502 11.974 12.7198 11.974 12.5159 11.7744L9.15896 8.48765C8.75115 8.08843 8.75115 7.44129 9.15896 7.04208L10.236 5.98754ZM46.7065 12.7849L49.6942 15.71C50.1019 16.1093 50.1019 16.7564 49.6942 17.1556L36.2225 30.3458C35.8148 30.7449 35.1537 30.7449 34.746 30.3458L25.1846 20.9844C25.0826 20.8845 24.9174 20.8845 24.8155 20.9844L15.2543 30.3458C14.8466 30.7449 14.1855 30.7449 13.7778 30.3458L0.305748 17.1555C-0.101947 16.7563 -0.101947 16.1091 0.305748 15.7099L3.29345 12.7847C3.70115 12.3856 4.36216 12.3856 4.76986 12.7847L14.3315 22.1462C14.4333 22.2461 14.5985 22.2461 14.7005 22.1462L24.2616 12.7847C24.6692 12.3856 25.3303 12.3856 25.738 12.7847L35.2996 22.1462C35.4015 22.2461 35.5668 22.2461 35.6687 22.1462L45.23 12.7849C45.6378 12.3857 46.2988 12.3857 46.7065 12.7849Z" fill="#3396FF"/>
</svg>
