<svg width="31" height="60" viewBox="0 0 31 60" fill="none" xmlns="http://www.w3.org/2000/svg">
<path d="M15.5 58C24.0604 58 31 51.0604 31 42.5C31 33.9396 24.0604 27 15.5 27C6.93959 27 0 33.9396 0 42.5C0 51.0604 6.93959 58 15.5 58Z" fill="#E2E2E2"/>
<path d="M24.5 20.71L15.5 26L6.5 20.71V0H24.5V20.71Z" fill="#E2E2E2"/>
<path d="M20.5 0V23.06L15.5 26L10.5 23.06V0H20.5Z" fill="#D4D4D4"/>
<path d="M15.39 53.89C21.6805 53.89 26.78 48.7905 26.78 42.5C26.78 36.2095 21.6805 31.11 15.39 31.11C9.09948 31.11 4 36.2095 4 42.5C4 48.7905 9.09948 53.89 15.39 53.89Z" fill="#D5D5D5"/>
<path d="M15.3828 48.1641C14.6484 48.1641 13.9766 48.0365 13.3672 47.7812C12.7578 47.5208 12.2734 47.1458 11.9141 46.6562C11.5599 46.1615 11.3906 45.5599 11.4062 44.8516L11.4141 44.8047H13.8438C13.8438 45.0755 13.9062 45.3229 14.0312 45.5469C14.1562 45.7656 14.3333 45.9401 14.5625 46.0703C14.7969 46.1953 15.0703 46.2578 15.3828 46.2578C15.8724 46.2578 16.2578 46.1172 16.5391 45.8359C16.8255 45.5547 16.9688 45.1797 16.9688 44.7109C16.9688 44.2266 16.8203 43.8438 16.5234 43.5625C16.2318 43.276 15.7969 43.1328 15.2188 43.1328H14.0156V41.2734H15.2812C15.6146 41.2734 15.8932 41.2135 16.1172 41.0938C16.3411 40.9688 16.5078 40.7995 16.6172 40.5859C16.7318 40.3672 16.7891 40.1094 16.7891 39.8125C16.7891 39.3854 16.6693 39.0391 16.4297 38.7734C16.1901 38.5078 15.8411 38.375 15.3828 38.375C15.1172 38.375 14.8802 38.4297 14.6719 38.5391C14.4635 38.6432 14.2995 38.7917 14.1797 38.9844C14.0651 39.1719 14.0078 39.3932 14.0078 39.6484H11.5781L11.5625 39.6016C11.5417 38.987 11.6927 38.4427 12.0156 37.9688C12.3385 37.4948 12.7891 37.125 13.3672 36.8594C13.9505 36.5938 14.6146 36.4609 15.3594 36.4609C16.5469 36.4609 17.4974 36.7422 18.2109 37.3047C18.9297 37.862 19.2891 38.6536 19.2891 39.6797C19.2891 40.2266 19.1406 40.7083 18.8438 41.125C18.5521 41.5417 18.112 41.888 17.5234 42.1641C18.138 42.388 18.6146 42.7292 18.9531 43.1875C19.2969 43.6458 19.4688 44.1875 19.4688 44.8125C19.4688 45.5052 19.2917 46.1016 18.9375 46.6016C18.5833 47.1016 18.099 47.487 17.4844 47.7578C16.8698 48.0286 16.1693 48.1641 15.3828 48.1641Z" fill="#E2E2E2"/>
</svg>
