<?xml version="1.0" encoding="utf-8"?>
<!-- Generator: Adobe Illustrator 27.0.0, SVG Export Plug-In . SVG Version: 6.00 Build 0)  -->
<svg version="1.1" id="Layer_1" xmlns="http://www.w3.org/2000/svg" xmlns:xlink="http://www.w3.org/1999/xlink" x="0px" y="0px"
	 viewBox="0 0 700 700" style="enable-background:new 0 0 700 700;" xml:space="preserve">
<style type="text/css">
	.st0{fill:#160344;}
</style>
<symbol  id="a" viewBox="-2.5 -2.4 4.9 4.8">
	<path d="M2.5,0v0.4H-1c0,0.3,0.1,0.6,0.4,0.8c0.2,0.2,0.5,0.2,0.9,0.2c0.3,0,0.6,0,1-0.1c0.3-0.1,0.7-0.2,1-0.4V2
		c-0.3,0.1-0.7,0.2-1,0.3c-0.3,0.1-0.7,0.1-1,0.1c-0.8,0-1.5-0.2-2-0.6c-0.5-0.4-0.7-1-0.7-1.8c0-0.8,0.2-1.3,0.7-1.8
		c0.5-0.4,1.1-0.6,1.9-0.6c0.7,0,1.3,0.2,1.7,0.7C2.3-1.3,2.5-0.7,2.5,0L2.5,0z M1-0.5C1-0.8,0.9-1,0.7-1.2C0.5-1.4,0.3-1.4,0.1-1.4
		c-0.3,0-0.5,0.1-0.7,0.2C-0.8-1-0.9-0.8-1-0.5H1z"/>
</symbol>
<symbol  id="b" viewBox="-1.9 -3 3.7 5.9">
	<path d="M0.3-3v1.3h1.5v1H0.3v2c0,0.2,0,0.4,0.1,0.4C0.6,1.9,0.7,1.9,1,1.9h0.8v1H0.5c-0.6,0-1-0.1-1.2-0.4C-1,2.4-1.1,1.9-1.1,1.4
		v-2h-0.7v-1h0.7V-3H0.3z"/>
</symbol>
<symbol  id="c" viewBox="-1.7 -2.4 3.4 4.7">
	<path d="M1.7-1C1.6-1.1,1.4-1.1,1.3-1.1c-0.1,0-0.2,0-0.4,0C0.6-1.2,0.3-1,0.1-0.8c-0.2,0.2-0.3,0.6-0.3,1v2.1h-1.5v-4.6h1.5v0.8
		C-0.1-1.8,0.2-2,0.4-2.1c0.2-0.1,0.5-0.2,0.9-0.2h0.2c0.1,0,0.1,0,0.3,0L1.7-1z"/>
</symbol>
<symbol  id="d" viewBox="-2.5 -2.4 5 4.8">
	<path d="M0-1.4c-0.3,0-0.6,0.1-0.8,0.4C-0.9-0.8-1-0.4-1,0s0.1,0.8,0.2,1C-0.6,1.2-0.3,1.4,0,1.4c0.3,0,0.6-0.1,0.7-0.3
		C0.9,0.8,1,0.4,1,0S0.9-0.8,0.7-1C0.6-1.2,0.3-1.4,0-1.4z M0-2.4c0.8,0,1.4,0.2,1.8,0.6c0.4,0.4,0.7,1,0.7,1.8
		c0,0.8-0.2,1.4-0.7,1.8C1.4,2.2,0.8,2.4,0,2.4c-0.8,0-1.4-0.2-1.9-0.6c-0.4-0.4-0.7-1-0.7-1.8c0-0.8,0.2-1.3,0.7-1.8
		C-1.4-2.2-0.8-2.4,0-2.4z"/>
</symbol>
<g>
	<path class="st0" d="M258.3,146.7H506v-35c0-17.7-7.2-33.7-18.9-45.4c-11.7-11.7-27.7-18.9-45.4-18.9h-330
		c-17.7,0-33.7,7.2-45.4,18.9C54.6,77.9,47.4,94,47.4,111.7v330c0,17.7,7.2,33.7,18.9,45.4C77.9,498.7,94,506,111.7,506h35V258.3
		c0-30.7,12.6-58.7,32.8-78.9S227.6,146.7,258.3,146.7L258.3,146.7z M553.3,146.7h35c30.7,0,58.7,12.6,78.9,32.8
		c20.2,20.2,32.8,48.2,32.8,78.9v330c0,30.7-12.6,58.7-32.8,78.9C647,687.5,619.1,700,588.3,700h-330c-30.7,0-58.7-12.6-78.9-32.8
		s-32.8-48.2-32.8-78.9v-35h-35c-30.7,0-58.7-12.6-78.9-32.8C12.6,500.3,0,472.4,0,441.7v-330C0,80.9,12.6,53,32.8,32.8
		C53,12.6,80.9,0,111.7,0h330c30.7,0,58.7,12.6,78.9,32.8c20.2,20.2,32.8,48.2,32.8,78.9V146.7z M588.3,194h-330
		c-17.7,0-33.7,7.2-45.4,18.9c-11.7,11.7-18.9,27.7-18.9,45.4v330c0,17.7,7.2,33.7,18.9,45.4c11.7,11.7,27.7,18.9,45.4,18.9h330
		c17.7,0,33.7-7.2,45.4-18.9c11.7-11.7,18.9-27.7,18.9-45.4v-330c0-17.7-7.2-33.7-18.9-45.4C622.1,201.3,606,194,588.3,194z"/>
	<g>
		<defs>
			<rect id="SVGID_1_" x="73.7" y="593.6" width="700" height="700"/>
		</defs>
		<clipPath id="SVGID_00000132072725527074938340000011370112853200605361_">
			<use xlink:href="#SVGID_1_"  style="overflow:visible;"/>
		</clipPath>
		<g style="clip-path:url(#SVGID_00000132072725527074938340000011370112853200605361_);">
			
				<use xlink:href="#c"  width="3.4" height="4.7" x="-1.7" y="-2.4" transform="matrix(1 0 0 1 76.0703 591.2499)" style="overflow:visible;"/>
		</g>
	</g>
	<g>
		<defs>
			<rect id="SVGID_00000083806079558455648570000005259039179391924641_" x="95.2" y="593.6" width="700" height="700"/>
		</defs>
		<clipPath id="SVGID_00000150074634760916478590000011164499973743034808_">
			<use xlink:href="#SVGID_00000083806079558455648570000005259039179391924641_"  style="overflow:visible;"/>
		</clipPath>
		<g style="clip-path:url(#SVGID_00000150074634760916478590000011164499973743034808_);">
			
				<use xlink:href="#b"  width="3.7" height="5.9" x="-1.9" y="-3" transform="matrix(1 0 0 1 97.2148 590.6485)" style="overflow:visible;"/>
		</g>
	</g>
	<g>
		<defs>
			<rect id="SVGID_00000142160712904491883200000008717850241332540807_" x="105.2" y="593.6" width="700" height="700"/>
		</defs>
		<clipPath id="SVGID_00000164488423418502247790000017005964424978927292_">
			<use xlink:href="#SVGID_00000142160712904491883200000008717850241332540807_"  style="overflow:visible;"/>
		</clipPath>
		<g style="clip-path:url(#SVGID_00000164488423418502247790000017005964424978927292_);">
			
				<use xlink:href="#a"  width="4.9" height="4.8" x="-2.5" y="-2.4" transform="matrix(1 0 0 1 108.0704 591.3126)" style="overflow:visible;"/>
		</g>
	</g>
	<g>
		<defs>
			<rect id="SVGID_00000030448355939675008990000007597410160990784666_" x="120.9" y="593.6" width="700" height="700"/>
		</defs>
		<clipPath id="SVGID_00000156550837885597582380000006406231246891958954_">
			<use xlink:href="#SVGID_00000030448355939675008990000007597410160990784666_"  style="overflow:visible;"/>
		</clipPath>
		<g style="clip-path:url(#SVGID_00000156550837885597582380000006406231246891958954_);">
			
				<use xlink:href="#d"  width="5" height="4.8" x="-2.5" y="-2.4" transform="matrix(1 0 0 1 123.7773 591.3125)" style="overflow:visible;"/>
		</g>
	</g>
	<g>
		<defs>
			<rect id="SVGID_00000061466088407044520310000002188411754816600969_" x="147.7" y="593.6" width="700" height="700"/>
		</defs>
		<clipPath id="SVGID_00000056416952314583899770000017745292857096891543_">
			<use xlink:href="#SVGID_00000061466088407044520310000002188411754816600969_"  style="overflow:visible;"/>
		</clipPath>
		<g style="clip-path:url(#SVGID_00000056416952314583899770000017745292857096891543_);">
			
				<use xlink:href="#c"  width="3.4" height="4.7" x="-1.7" y="-2.4" transform="matrix(1 0 0 1 150.1172 591.2499)" style="overflow:visible;"/>
		</g>
	</g>
	<g>
		<defs>
			<rect id="SVGID_00000008860923530015834220000011363674494079003554_" x="151.8" y="593.6" width="700" height="700"/>
		</defs>
		<clipPath id="SVGID_00000165215082831948624720000015539845833566298265_">
			<use xlink:href="#SVGID_00000008860923530015834220000011363674494079003554_"  style="overflow:visible;"/>
		</clipPath>
		<g style="clip-path:url(#SVGID_00000165215082831948624720000015539845833566298265_);">
			
				<use xlink:href="#d"  width="5" height="4.8" x="-2.5" y="-2.4" transform="matrix(1 0 0 1 154.7305 591.3125)" style="overflow:visible;"/>
		</g>
	</g>
	<g>
		<defs>
			<rect id="SVGID_00000142149597153613241280000011784567377619665073_" x="160.5" y="593.6" width="700" height="700"/>
		</defs>
		<clipPath id="SVGID_00000098920395825535353390000002988630521100816556_">
			<use xlink:href="#SVGID_00000142149597153613241280000011784567377619665073_"  style="overflow:visible;"/>
		</clipPath>
		<g style="clip-path:url(#SVGID_00000098920395825535353390000002988630521100816556_);">
			
				<use xlink:href="#a"  width="4.9" height="4.8" x="-2.5" y="-2.4" transform="matrix(1 0 0 1 163.3243 591.3126)" style="overflow:visible;"/>
		</g>
	</g>
	<g>
		<defs>
			<rect id="SVGID_00000127026810621321967590000003651348139696054174_" x="171.2" y="593.6" width="700" height="700"/>
		</defs>
		<clipPath id="SVGID_00000100357758962862858840000011898820971085199505_">
			<use xlink:href="#SVGID_00000127026810621321967590000003651348139696054174_"  style="overflow:visible;"/>
		</clipPath>
		<g style="clip-path:url(#SVGID_00000100357758962862858840000011898820971085199505_);">
			
				<use xlink:href="#b"  width="3.7" height="5.9" x="-1.9" y="-3" transform="matrix(1 0 0 1 173.1445 590.6485)" style="overflow:visible;"/>
		</g>
	</g>
</g>
</svg>
