<?xml version="1.0" encoding="utf-8"?>
<!-- Generator: Adobe Illustrator 27.0.0, SVG Export Plug-In . SVG Version: 6.00 Build 0)  -->
<svg version="1.1" id="Layer_1" xmlns="http://www.w3.org/2000/svg" xmlns:xlink="http://www.w3.org/1999/xlink" x="0px" y="0px"
	 viewBox="0 0 40 40" style="enable-background:new 0 0 40 40;" xml:space="preserve">
<style type="text/css">
	.st0{fill:none;}
	.st1{fill:#160344;}
</style>
<g>
	<path class="st0" d="M19.1,13.3h6.6c-0.2-2.1-2-3.8-4.2-3.8h-8c-2.3,0-4.2,1.9-4.2,4.2v8c0,2.3,1.8,4.1,4.1,4.2V19
		C13.4,15.9,15.9,13.3,19.1,13.3z"/>
	<path class="st1" d="M13.4,26c-2.3-0.1-4.1-1.9-4.1-4.2v-8c0-2.3,1.9-4.2,4.2-4.2h8c2.2,0,4,1.7,4.2,3.8h1.4c0,0,0.1,0,0.1,0
		C27,10.3,24.6,8,21.5,8h-8c-3.2,0-5.8,2.6-5.8,5.8v8c0,3.1,2.5,5.7,5.6,5.7c0-0.2,0-0.3,0-0.5V26z"/>
	<path class="st1" d="M27.3,13.3c0,0-0.1,0-0.1,0h-1.4h-6.6c-3.2,0-5.7,2.6-5.7,5.8V26V27c0,0.2,0,0.3,0,0.5c0.2,3,2.7,5.3,5.7,5.3
		h8c3.2,0,5.8-2.6,5.8-5.7v-8C32.9,15.9,30.4,13.4,27.3,13.3z M31.4,27c0,2.3-1.9,4.2-4.2,4.2h-8c-2.2,0-4-1.7-4.2-3.8
		c0-0.2,0-0.3,0-0.5v-1v-7c0-2.3,1.9-4.2,4.2-4.2h6.7h1.3c0.1,0,0.1,0,0.2,0c2.3,0.1,4.1,1.9,4.1,4.2V27z"/>
</g>
</svg>
