<svg width="19" height="20" viewBox="0 0 19 20" fill="none" xmlns="http://www.w3.org/2000/svg">
<path d="M10.9091 3.0303C10.9091 2.02615 10.095 1.21212 9.09091 1.21212C8.08675 1.21212 7.27273 2.02615 7.27273 3.0303H6.06061C6.06061 1.35672 7.41732 0 9.09091 0C10.7645 0 12.1212 1.35672 12.1212 3.0303H17.5758C17.9104 3.0303 18.1818 3.30165 18.1818 3.63636C18.1818 3.97108 17.9104 4.24242 17.5758 4.24242H16.9042L15.3332 17.8536C15.1921 19.0768 14.1564 20 12.925 20H5.25682C4.02545 20 2.9897 19.0768 2.84856 17.8536L1.27636 4.24242H0.606061C0.308533 4.24242 0.0610788 4.02802 0.00976967 3.74531L0 3.63636C0 3.30165 0.271345 3.0303 0.606061 3.0303H10.9091ZM15.6824 4.24242H2.49818L4.05269 17.7147C4.12326 18.3263 4.64114 18.7879 5.25682 18.7879H12.925C13.5407 18.7879 14.0585 18.3263 14.1291 17.7147L15.6824 4.24242ZM7.27273 7.27273C7.57025 7.27273 7.81771 7.46033 7.86902 7.70771L7.87879 7.80303V15.2273C7.87879 15.5201 7.60744 15.7576 7.27273 15.7576C6.9752 15.7576 6.72775 15.5699 6.67644 15.3225L6.66667 15.2273V7.80303C6.66667 7.51016 6.93801 7.27273 7.27273 7.27273ZM10.9091 7.27273C11.2067 7.27273 11.4541 7.46033 11.5053 7.70771L11.5152 7.80303V15.2273C11.5152 15.5201 11.2438 15.7576 10.9091 15.7576C10.6115 15.7576 10.3641 15.5699 10.3128 15.3225L10.303 15.2273V7.80303C10.303 7.51016 10.5744 7.27273 10.9091 7.27273Z" fill="#2775C9"/>
</svg>
