<svg width="20" height="20" viewBox="0 0 20 20" fill="none" xmlns="http://www.w3.org/2000/svg">
<path fill-rule="evenodd" clip-rule="evenodd" d="M12.3639 1.99404V0H19.4349V7.07107H17.4409L17.4338 3.41532L10.2426 10.6066L8.82835 9.19239L16.0196 2.00111L12.3639 1.99404ZM5 1.46447H9V2.96447H5C3.067 2.96447 1.5 4.53147 1.5 6.46447V14.4645C1.5 16.3975 3.067 17.9645 5 17.9645H13C14.933 17.9645 16.5 16.3975 16.5 14.4645V10.4645H18V14.4645C18 17.2259 15.7614 19.4645 13 19.4645H5C2.23858 19.4645 0 17.2259 0 14.4645V6.46447C0 3.70304 2.23858 1.46447 5 1.46447Z" fill="#160344"/>
</svg>
