<svg width="31" height="58" viewBox="0 0 31 58" fill="none" xmlns="http://www.w3.org/2000/svg">
<path d="M15.5 58C24.0604 58 31 51.0604 31 42.5C31 33.9396 24.0604 27 15.5 27C6.93959 27 0 33.9396 0 42.5C0 51.0604 6.93959 58 15.5 58Z" fill="#FBCC5F"/>
<path d="M24.5 20.71L15.5 26L6.5 20.71V0H24.5V20.71Z" fill="#39079B"/>
<path d="M20.5 0V23.06L15.5 26L10.5 23.06V0H20.5Z" fill="#F13ABC"/>
<path d="M15.39 53.89C21.6805 53.89 26.78 48.7905 26.78 42.5C26.78 36.2095 21.6805 31.11 15.39 31.11C9.09948 31.11 4 36.2095 4 42.5C4 48.7905 9.09948 53.89 15.39 53.89Z" fill="#EB9444"/>
<path d="M14.5489 36.9271C14.8483 36.0057 16.1517 36.0057 16.4511 36.9271L17.2961 39.5279C17.43 39.9399 17.8139 40.2188 18.2472 40.2188H20.9818C21.9505 40.2188 22.3533 41.4585 21.5696 42.0279L19.3572 43.6353C19.0067 43.8899 18.8601 44.3413 18.994 44.7533L19.839 47.3541C20.1384 48.2754 19.0839 49.0415 18.3002 48.4721L16.0878 46.8647C15.7373 46.6101 15.2627 46.6101 14.9122 46.8647L12.6998 48.4721C11.9161 49.0415 10.8616 48.2754 11.161 47.3541L12.006 44.7533C12.1399 44.3413 11.9933 43.8899 11.6428 43.6353L9.43039 42.0279C8.64668 41.4585 9.04945 40.2188 10.0182 40.2188H12.7528C13.1861 40.2188 13.57 39.9399 13.7039 39.5279L14.5489 36.9271Z" fill="#FBCC5F"/>
</svg>
