<svg width="26" height="23" viewBox="0 0 26 23" fill="none" xmlns="http://www.w3.org/2000/svg">
<path d="M12.984 7.90401C14.952 7.90401 16.552 6.30401 16.552 4.33601C16.552 2.36801 14.952 0.768005 12.984 0.768005C11.016 0.768005 9.41602 2.36801 9.41602 4.33601C9.41602 6.30401 11.016 7.90401 12.984 7.90401ZM12.984 2.38401C14.072 2.38401 14.952 3.26401 14.952 4.35201C14.952 5.44001 14.072 6.32001 12.984 6.32001C11.896 6.32001 11.016 5.44001 11.016 4.35201C11.016 3.26401 11.896 2.38401 12.984 2.38401Z" fill="white"/>
<path d="M4.79193 19.376C3.14393 19.376 1.81593 18.048 1.81593 16.4V10.416H5.79993V10.128C5.84793 9.64798 6.00793 9.19998 6.23193 8.81598H1.83193H1.63993C0.839934 8.91198 0.231934 9.58398 0.231934 10.4V16.656C0.375934 19.056 2.37593 20.96 4.80793 20.96C5.43193 20.96 6.03993 20.832 6.58393 20.608C6.34393 20.128 6.15193 19.632 6.03993 19.104C5.67193 19.264 5.25593 19.36 4.82393 19.36L4.79193 19.376Z" fill="white"/>
<path d="M5.03207 1.79199C3.33607 1.79199 1.97607 3.16799 1.97607 4.84799C1.97607 6.52799 3.35207 7.90399 5.03207 7.90399C6.71207 7.90399 8.08807 6.52799 8.08807 4.84799C8.08807 3.16799 6.71207 1.79199 5.03207 1.79199ZM5.03207 6.31999C4.23207 6.31999 3.57607 5.66399 3.57607 4.86399C3.57607 4.06399 4.23207 3.40799 5.03207 3.40799C5.83207 3.40799 6.48807 4.06399 6.48807 4.86399C6.48807 5.66399 5.83207 6.31999 5.03207 6.31999Z" fill="white"/>
<path d="M21.1282 19.376C22.7762 19.376 24.1042 18.048 24.1042 16.4V10.416H20.1202V10.128C20.0722 9.64798 19.9122 9.19998 19.6882 8.81598H24.1042H24.2962C25.0962 8.91198 25.7042 9.58398 25.7042 10.4V16.384V16.656C25.5602 19.056 23.5762 20.96 21.1442 20.96C20.5202 20.96 19.9122 20.832 19.3682 20.608C19.6082 20.128 19.8002 19.632 19.9122 19.104C20.2802 19.264 20.6962 19.36 21.1282 19.36V19.376Z" fill="white"/>
<path d="M17.8481 4.84799C17.8481 6.54399 19.2241 7.90399 20.9041 7.90399C22.5841 7.90399 23.9601 6.52799 23.9601 4.84799C23.9601 3.16799 22.5841 1.79199 20.9041 1.79199C19.2241 1.79199 17.8481 3.16799 17.8481 4.84799ZM19.4481 4.84799C19.4481 4.04799 20.1041 3.39199 20.9041 3.39199C21.7041 3.39199 22.3601 4.04799 22.3601 4.84799C22.3601 5.64799 21.7041 6.30399 20.9041 6.30399C20.1041 6.30399 19.4481 5.64799 19.4481 4.84799Z" fill="white"/>
<path d="M17.0319 8.83203H16.8399H13.4159H12.9199H12.4239H8.9999H8.8079C8.0079 8.92803 7.3999 9.60003 7.3999 10.416V18.448C7.5119 20.32 9.3839 21.888 11.3519 22.48C11.8159 22.64 12.3119 22.752 12.8399 22.752C12.8559 22.752 12.8879 22.752 12.9039 22.752C12.9199 22.752 12.9519 22.752 12.9679 22.752C13.4959 22.752 13.9919 22.64 14.4559 22.48C16.4239 21.888 18.2959 20.32 18.4079 18.448V18.176V10.416C18.4079 9.60003 17.7839 8.91203 16.9999 8.83203H17.0319ZM16.8399 18.192C16.8399 19.408 15.5439 20.448 14.2159 20.912C14.1519 20.944 14.0719 20.96 14.0079 20.976C13.6399 21.088 13.2719 21.152 12.9359 21.152C12.5999 21.152 12.2319 21.072 11.8639 20.976C11.7999 20.944 11.7199 20.944 11.6559 20.912C10.3119 20.448 9.0319 19.408 9.0319 18.192V10.432H16.8719V18.192H16.8399Z" fill="white"/>
</svg>
