<svg width="20" height="25" viewBox="0 0 20 25" fill="none" xmlns="http://www.w3.org/2000/svg">
<path d="M9.9999 0.200012C12.6559 0.200012 14.7999 2.34401 14.7999 5.00001V6.60001H16.3999C18.1599 6.60001 19.5999 8.04001 19.5999 9.80001V21C19.5999 22.76 18.1599 24.2 16.3999 24.2H3.5999C1.8399 24.2 0.399902 22.76 0.399902 21V9.80001C0.399902 8.04001 1.8399 6.60001 3.5999 6.60001H5.1999V5.00001C5.1999 2.34401 7.3439 0.200012 9.9999 0.200012ZM16.3999 8.20001H3.5999C2.7199 8.20001 1.9999 8.92001 1.9999 9.80001V21C1.9999 21.88 2.7199 22.6 3.5999 22.6H16.3999C17.2799 22.6 17.9999 21.88 17.9999 21V9.80001C17.9999 8.92001 17.2799 8.20001 16.3999 8.20001ZM9.9999 13.8C10.8799 13.8 11.5999 14.52 11.5999 15.4C11.5999 16.28 10.8799 17 9.9999 17C9.1199 17 8.3999 16.28 8.3999 15.4C8.3999 14.52 9.1199 13.8 9.9999 13.8ZM9.9999 1.80001C8.2399 1.80001 6.7999 3.24001 6.7999 5.00001V6.60001H13.1999V5.00001C13.1999 3.24001 11.7599 1.80001 9.9999 1.80001Z" fill="white"/>
</svg>
