<svg width="41" height="28" viewBox="0 0 41 28" fill="none" xmlns="http://www.w3.org/2000/svg">
<g clip-path="url(#clip0_2518_585)">
<path d="M4.9828 7.97748L4.19071 11.2692L8.14461 11.9276L5.29702 23.7779L1.02672 24.4363L0.236816 27.728H8.45882L10.3572 19.8278H18.5792L19.5284 15.8777H11.3064L12.2556 11.9276H24.5886L24.3246 15.8777H27.7504L29.6488 7.97748H4.9828Z" fill="white"/>
<path d="M31.5472 0.0772705H6.88121L6.09131 3.36903L10.0452 4.02738H30.6002C32.6754 4.02738 34.4363 4.97507 35.5579 6.69643C36.1492 7.60218 36.5311 8.66938 36.6947 9.86658C36.8693 11.1372 36.7864 12.4958 36.4481 13.9026C36.1099 15.3095 35.5404 16.666 34.7549 17.9387C34.0151 19.1359 33.1205 20.2031 32.0927 21.1089C30.1442 22.8302 27.9272 23.7779 25.8521 23.7779H13.519L12.5698 27.728H24.9029C31.7153 27.728 38.724 21.5387 40.557 13.9026C42.3921 6.26661 38.3574 0.0772705 31.5472 0.0772705Z" fill="white"/>
</g>
<defs>
<clipPath id="clip0_2518_585">
<rect width="41" height="28" fill="white"/>
</clipPath>
</defs>
</svg>
