<svg width="32" height="20" viewBox="0 0 32 20" fill="none" xmlns="http://www.w3.org/2000/svg">
<path d="M7.26542 1.13271L1.13271 7.26542C-0.37757 8.7757 -0.37757 11.2244 1.13271 12.7346L7.26542 18.8674C8.7757 20.3775 11.2243 20.3775 12.7346 18.8674L18.8674 12.7346C20.3776 11.2244 20.3776 8.7757 18.8674 7.26542L12.7346 1.13271C11.2243 -0.37757 8.7757 -0.37757 7.26542 1.13271ZM2.50001 8.63272L8.63272 2.50001C9.38785 1.74486 10.6122 1.74486 11.3673 2.50001L17.5001 8.63272C18.2552 9.38787 18.2552 10.6122 17.5001 11.3673L11.3673 17.5001C10.6122 18.2552 9.38785 18.2552 8.63272 17.5001L2.50001 11.3673C1.74486 10.6122 1.74486 9.38787 2.50001 8.63272Z" fill="#160344"/>
<path d="M18.8685 18.8674L17.1694 17.1683L18.5367 15.801L20.2358 17.5001C20.9909 18.2552 22.2153 18.2552 22.9704 17.5001L29.1032 11.3673C29.8582 10.6122 29.8582 9.38787 29.1032 8.63272L22.9704 2.50001C22.2153 1.74486 20.9909 1.74486 20.2358 2.50001L18.5367 4.19907L17.1694 2.83177L18.8685 1.13271C20.3787 -0.37757 22.8275 -0.37757 24.3377 1.13271L30.4704 7.26542C31.9806 8.7757 31.9806 11.2244 30.4704 12.7346L24.3377 18.8674C22.8275 20.3775 20.3787 20.3775 18.8685 18.8674Z" fill="#160344"/>
</svg>
