<svg width="23" height="20" viewBox="0 0 23 20" fill="none" xmlns="http://www.w3.org/2000/svg">
<path d="M18.4215 11.4286H16.8196C16.3773 11.4286 16.0187 11.7484 16.0187 12.1429C16.0187 12.5373 16.3773 12.8571 16.8196 12.8571H18.4215C18.8637 12.8571 19.2224 12.5373 19.2224 12.1429C19.2224 11.7484 18.8637 11.4286 18.4215 11.4286ZM2.4028 0C1.07577 0 0 0.959386 0 2.14286V16.4286C0 18.401 1.79295 20 4.00466 20H20.0233C21.3503 20 22.4261 19.0406 22.4261 17.8571V5C22.4261 4.06699 21.7575 3.27324 20.8243 2.97907V2.14286C20.8243 0.959386 19.7484 0 18.4215 0H2.4028ZM1.60187 16.4286V4.16379C1.85238 4.24274 2.12196 4.28571 2.4028 4.28571H20.0233C20.4656 4.28571 20.8243 4.60551 20.8243 5V17.8571C20.8243 18.2516 20.4656 18.5714 20.0233 18.5714H4.00466C2.67763 18.5714 1.60187 17.612 1.60187 16.4286ZM2.4028 1.42857H18.4215C18.8637 1.42857 19.2224 1.74837 19.2224 2.14286V2.85714H2.4028C1.96046 2.85714 1.60187 2.53734 1.60187 2.14286C1.60187 1.74837 1.96046 1.42857 2.4028 1.42857Z" fill="#160344"/>
</svg>
