<svg width="24" height="21" viewBox="0 0 24 21" fill="none" xmlns="http://www.w3.org/2000/svg">
<path d="M10.8053 0.743231C11.2943 -0.24775 12.7075 -0.247737 13.1965 0.743231L15.7703 5.95846L21.5257 6.79477C22.6194 6.95367 23.0561 8.29762 22.2646 9.06898L18.1 13.1284L19.0832 18.8606C19.27 19.9497 18.1268 20.7804 17.1486 20.2661L12.0009 17.5598L6.85314 20.2661C5.87499 20.7804 4.73178 19.9497 4.91859 18.8606L5.90172 13.1284L1.73711 9.06898C0.945762 8.29761 1.38245 6.95367 2.47605 6.79477L8.2314 5.95846L10.8053 0.743231ZM12.0009 1.33331L9.42701 6.54855C9.2328 6.94206 8.8574 7.21481 8.42313 7.27792L2.66777 8.11422L6.83238 12.1738C7.14663 12.48 7.29002 12.9213 7.21584 13.3539L6.2327 19.0859L11.3804 16.3797C11.7689 16.1754 12.2329 16.1754 12.6213 16.3797L17.7691 19.0859L16.7859 13.3539C16.7118 12.9213 16.8551 12.48 17.1694 12.1738L21.334 8.11422L15.5786 7.27792C15.1443 7.21481 14.769 6.94206 14.5748 6.54855L12.0009 1.33331Z" fill="#160344"/>
<path d="M4.52052 13.7947C4.75052 14.0822 4.70391 14.5016 4.41641 14.7316L1.08314 17.3982C0.795626 17.6282 0.376114 17.5817 0.146105 17.2942C-0.0838919 17.0066 -0.0372781 16.5872 0.250223 16.3572L3.58349 13.6906C3.87099 13.4606 4.29052 13.5071 4.52052 13.7947Z" fill="#160344"/>
<path d="M4.41641 3.69071C4.70391 3.92072 4.75052 4.34025 4.52052 4.62775C4.29052 4.91525 3.87099 4.96186 3.58349 4.73185L0.250223 2.06524C-0.0372781 1.83524 -0.0838919 1.41571 0.146105 1.12821C0.376114 0.840712 0.795626 0.7941 1.08314 1.0241L4.41641 3.69071Z" fill="#160344"/>
<path d="M19.4791 13.7947C19.2491 14.0822 19.2958 14.5016 19.5832 14.7316L22.9165 17.3982C23.2041 17.6282 23.6235 17.5817 23.8535 17.2942C24.0835 17.0066 24.037 16.5872 23.7494 16.3572L20.4161 13.6906C20.1287 13.4606 19.7092 13.5071 19.4791 13.7947Z" fill="#160344"/>
<path d="M19.5832 3.69071C19.2958 3.92072 19.2491 4.34025 19.4791 4.62775C19.7092 4.91525 20.1287 4.96186 20.4161 4.73185L23.7494 2.06524C24.037 1.83524 24.0835 1.41571 23.8535 1.12821C23.6235 0.840712 23.2041 0.7941 22.9165 1.0241L19.5832 3.69071Z" fill="#160344"/>
</svg>
