<svg width="24" height="24" viewBox="0 0 24 24" fill="none" xmlns="http://www.w3.org/2000/svg">
<path d="M12.5372 6.99417C13.7709 5.76038 15.7713 5.76141 17.0049 6.99513C18.2387 8.22884 18.2398 10.2292 17.0059 11.463C15.7721 12.6968 13.7719 12.6956 12.5381 11.462C11.3044 10.2283 11.3034 8.22797 12.5372 6.99417ZM15.887 8.11302C15.2701 7.4961 14.2708 7.49628 13.655 8.11207C13.0393 8.72787 13.0391 9.72719 13.656 10.3441C14.2729 10.961 15.2722 10.9609 15.888 10.3451C16.5037 9.72927 16.5041 8.72996 15.887 8.11302Z" fill="#160344"/>
<path d="M14.1083 19.766C13.2279 20.1833 12.1435 20.0279 11.4152 19.2994L10.4519 18.3363L9.2946 20.2652C9.16937 20.4741 8.95495 20.6134 8.71335 20.6432C8.47176 20.673 8.22993 20.5896 8.05781 20.4176L3.58264 15.9425C3.41047 15.7703 3.32725 15.5284 3.35707 15.2867C3.38687 15.0451 3.52637 14.8306 3.73523 14.7054L5.66468 13.5491L4.70056 12.5849C3.97215 11.8565 3.81667 10.7721 4.2341 9.89176L2.46394 8.12162C2.15525 7.81291 2.15525 7.31241 2.46394 7.00372L4.13953 5.32814C5.59877 3.86889 7.77185 3.55855 9.53471 4.39708L11.0168 2.91503C13.6351 0.296661 17.4907 -0.651338 21.0248 0.454313C22.2276 0.83061 23.1694 1.77251 23.5458 2.97524C24.6513 6.50924 23.7034 10.3649 21.085 12.9832L19.6031 14.4652C20.4419 16.2281 20.1316 18.4015 18.6722 19.8607L16.9965 21.5363C16.6879 21.8451 16.1874 21.8451 15.8787 21.5363L14.1083 19.766ZM20.5527 1.96314C17.5802 1.03314 14.3371 1.83054 12.1347 4.03293L10.8454 5.32219L10.8514 5.32814L9.73349 6.44604L9.72751 6.44009L6.37287 9.79474L6.37883 9.8007L5.74251 10.437C5.51228 10.7465 5.53759 11.1862 5.81846 11.467L12.5331 18.1816C12.8145 18.4631 13.2554 18.4879 13.5651 18.256L14.1997 17.6214L14.2054 17.6271L17.56 14.2725L17.5543 14.2668L18.6722 13.1489L18.6779 13.1546L19.9671 11.8654C22.1696 9.66297 22.9668 6.41986 22.0369 3.4473C21.8154 2.73921 21.2608 2.18468 20.5527 1.96314ZM15.3233 18.745L16.4377 19.8594L17.5543 18.7428C18.3808 17.9163 18.6546 16.7465 18.3758 15.6925L15.3233 18.745ZM8.30741 5.6244C7.25349 5.34578 6.08381 5.61965 5.25741 6.44604L4.14079 7.56266L5.25496 8.67683L8.30741 5.6244ZM9.29958 17.184L6.81713 14.7016L5.41679 15.5407L8.45978 18.5837L9.29958 17.184Z" fill="#160344"/>
<path d="M4.7073 20.4099C5.016 20.1013 5.016 19.6008 4.7073 19.292C4.39861 18.9834 3.89811 18.9834 3.58942 19.292L0.794034 22.0875C0.485322 22.3962 0.485322 22.8966 0.794034 23.2053C1.10273 23.5141 1.60323 23.5141 1.91192 23.2053L4.7073 20.4099Z" fill="#160344"/>
<path d="M2.47014 17.0545C2.77884 17.3632 2.77884 17.8638 2.47014 18.1725L1.34941 19.2931C1.04071 19.6019 0.540217 19.6019 0.231522 19.2931C-0.0771739 18.9845 -0.0771739 18.484 0.231522 18.1752L1.35224 17.0545C1.66095 16.7459 2.16145 16.7459 2.47014 17.0545Z" fill="#160344"/>
<path d="M6.94476 22.6476C7.25346 22.339 7.25346 21.8385 6.94476 21.5297C6.63607 21.2211 6.13556 21.2211 5.82686 21.5297L4.70614 22.6504C4.39743 22.9592 4.39743 23.4597 4.70614 23.7683C5.01484 24.0771 5.51533 24.0771 5.82403 23.7683L6.94476 22.6476Z" fill="#160344"/>
</svg>
