<svg width="16" height="18" viewBox="0 0 16 18" fill="none" xmlns="http://www.w3.org/2000/svg">
<path d="M7.34887 2.71498L13.5439 8.99998L7.34787 15.285C6.95687 15.679 6.95687 16.319 7.34787 16.713C7.73887 17.107 8.37187 17.107 8.76187 16.713L15.6609 9.71398C16.0359 9.33498 16.0379 8.66598 15.6609 8.28498L8.76087 1.28598C8.37087 0.891978 7.73687 0.891978 7.34687 1.28598C6.95787 1.68098 6.95787 2.32098 7.34887 2.71498Z" fill="#2775C9"/>
<path d="M8.66185 9.71398C9.03685 9.33498 9.03885 8.66598 8.66185 8.28498L1.76285 1.28598C1.37185 0.891978 0.738849 0.891978 0.348848 1.28598C-0.0421515 1.67998 -0.0421515 2.31998 0.348848 2.71398L6.54385 8.99998L0.347846 15.285C-0.0431535 15.679 -0.0431535 16.319 0.347846 16.713C0.738846 17.107 1.37185 17.107 1.76185 16.713L8.66185 9.71398Z" fill="#2775C9"/>
</svg>
