<svg width="31" height="60" viewBox="0 0 31 60" fill="none" xmlns="http://www.w3.org/2000/svg">
<path d="M15.5 58C24.0604 58 31 51.0604 31 42.5C31 33.9396 24.0604 27 15.5 27C6.93959 27 0 33.9396 0 42.5C0 51.0604 6.93959 58 15.5 58Z" fill="#C2C2C2"/>
<path d="M24.5 20.71L15.5 26L6.5 20.71V0H24.5V20.71Z" fill="#5F08EE"/>
<path d="M20.5 0V23.06L15.5 26L10.5 23.06V0H20.5Z" fill="#2775C9"/>
<path d="M15.39 53.89C21.6805 53.89 26.78 48.7905 26.78 42.5C26.78 36.2095 21.6805 31.11 15.39 31.11C9.09948 31.11 4 36.2095 4 42.5C4 48.7905 9.09948 53.89 15.39 53.89Z" fill="#888888"/>
<path d="M11.5547 48V46.3828L15.2344 42.4688C15.5833 42.0677 15.8594 41.7188 16.0625 41.4219C16.2708 41.1198 16.4193 40.8464 16.5078 40.6016C16.5964 40.3516 16.6406 40.1042 16.6406 39.8594C16.6406 39.4531 16.526 39.1094 16.2969 38.8281C16.0729 38.5417 15.737 38.3984 15.2891 38.3984C14.8099 38.3984 14.4479 38.5599 14.2031 38.8828C13.9635 39.2057 13.8438 39.6484 13.8438 40.2109H11.4062L11.3906 40.1641C11.375 39.4661 11.5234 38.8385 11.8359 38.2812C12.1536 37.724 12.6094 37.2812 13.2031 36.9531C13.7969 36.625 14.4974 36.4609 15.3047 36.4609C16.1068 36.4609 16.7917 36.6016 17.3594 36.8828C17.9323 37.1641 18.3724 37.5573 18.6797 38.0625C18.9922 38.5677 19.1484 39.1562 19.1484 39.8281C19.1484 40.2865 19.0677 40.7161 18.9062 41.1172C18.7448 41.513 18.487 41.9349 18.1328 42.3828C17.7839 42.8255 17.3229 43.349 16.75 43.9531L14.7734 46.0625L14.7891 46.1016H17.4062L17.5234 45.0781H19.4297V48H11.5547Z" fill="#C3C3C3"/>
</svg>
