<svg width="24" height="24" viewBox="0 0 24 24" fill="none" xmlns="http://www.w3.org/2000/svg">
<path d="M10.5 15C9.67158 15 9 14.3284 9 13.5V4.62415C4.74389 5.33737 1.5 9.04108 1.5 13.5C1.5 18.4705 5.52944 22.5 10.5 22.5C14.9589 22.5 18.6626 19.2561 19.3758 15H10.5ZM9.00446 3.10565C9.82458 2.9887 10.5 3.67153 10.5 4.49995V13.5H19.5C20.3285 13.5 21.0113 14.1753 20.8943 14.9955C20.1684 20.086 15.7913 24 10.5 24C4.70102 24 0 19.299 0 13.5C0 8.2087 3.91385 3.83158 9.00446 3.10565Z" fill="#160344"/>
<path d="M13.5 10.5V1.5C18.4706 1.5 22.5 5.52944 22.5 10.5H13.5ZM22.593 12C23.3394 12 23.9838 11.4506 23.9981 10.7043C23.9994 10.6364 24 10.5683 24 10.5C24 4.70102 19.299 0 13.5 0C13.4318 0 13.3637 0.000645145 13.2957 0.00195015C12.5495 0.0161851 12 0.660675 12 1.40705V10.5C12 11.3284 12.6716 12 13.5 12H22.593Z" fill="#160344"/>
</svg>
