<svg width="23" height="24" viewBox="0 0 23 24" fill="none" xmlns="http://www.w3.org/2000/svg">
<path d="M17.25 0C16.8359 0 16.5 0.33579 16.5 0.75C16.5 1.16421 16.8359 1.5 17.25 1.5H19.9394L12.75 8.68933L8.78033 4.71968C8.48744 4.42677 8.01257 4.42677 7.71968 4.71968L0.219679 12.2196C-0.0732263 12.5126 -0.0732263 12.9874 0.219679 13.2804C0.512569 13.5732 0.987439 13.5732 1.28033 13.2804L8.25 6.31067L12.2196 10.2803C12.5126 10.5732 12.9875 10.5732 13.2804 10.2803L21 2.56066V5.25C21 5.66421 21.3359 6 21.75 6C22.1642 6 22.5 5.66421 22.5 5.25V0.75C22.5 0.33579 22.1642 0 21.75 0H17.25ZM18.75 10.5C18.3359 10.5 18 10.8358 18 11.25V23.25C18 23.6642 18.3359 24 18.75 24C19.1642 24 19.5 23.6642 19.5 23.25V11.25C19.5 10.8358 19.1642 10.5 18.75 10.5ZM6.75 13.5C6.33579 13.5 6 13.8358 6 14.25V23.25C6 23.6642 6.33579 24 6.75 24C7.16421 24 7.5 23.6642 7.5 23.25V14.25C7.5 13.8358 7.16421 13.5 6.75 13.5ZM12 17.25C12 16.8358 12.3359 16.5 12.75 16.5C13.1642 16.5 13.5 16.8358 13.5 17.25V23.25C13.5 23.6642 13.1642 24 12.75 24C12.3359 24 12 23.6642 12 23.25V17.25ZM3.68804e-06 18.75C3.68804e-06 18.3358 0.335794 18 0.750004 18C1.16421 18 1.5 18.3358 1.5 18.75V23.25C1.5 23.6642 1.16421 24 0.750004 24C0.335794 24 3.68804e-06 23.6642 3.68804e-06 23.25V18.75Z" fill="#160344"/>
</svg>
