<svg width="20" height="20" viewBox="0 0 20 20" fill="none" xmlns="http://www.w3.org/2000/svg">
<path d="M14.06 1.01914C15.4189 -0.339713 17.622 -0.339713 18.9809 1.01914C20.2831 2.32136 20.3373 4.39898 19.1437 5.76582L18.9809 5.93995L6.97057 17.9503C6.71415 18.2066 6.40564 18.4037 6.06697 18.5284L5.86032 18.5946L0.790343 19.9773C0.356998 20.0954 -0.0431898 19.7346 0.00375944 19.3089L0.0227268 19.2096L1.40545 14.1397C1.50086 13.7898 1.67099 13.4657 1.90313 13.1894L2.04975 13.0294L14.06 1.01914ZM12.9845 3.86346L2.93385 13.9135C2.81846 14.0289 2.72715 14.1653 2.66455 14.315L2.6117 14.4687L1.51564 18.483L5.53134 17.3883C5.6363 17.3596 5.73662 17.3176 5.82993 17.2635L5.96433 17.1733L6.08647 17.0662L16.1365 7.0155L12.9845 3.86346ZM18.0968 1.90325C17.2746 1.08103 15.9699 1.03536 15.094 1.76621L14.9441 1.90325L13.8685 2.97949L17.0205 6.13153L18.0968 5.05586C18.919 4.23365 18.9646 2.92898 18.2338 2.05316L18.0968 1.90325Z" fill="#2775C9"/>
</svg>
