<svg  viewBox="0 0 800 300" fill="none" xmlns="http://www.w3.org/2000/svg">
<g style="mix-blend-mode:multiply">
<path d="M17.6764 268.422C13.1069 241.427 43.4774 217.746 74.5802 212.738C105.683 207.738 137.215 215.629 168.28 220.415C199.346 225.2 234.189 226.158 259.625 209.787C292.141 188.859 298.711 146.405 332.208 126.672C358.315 111.289 392.9 114.821 420.313 125.074C435.812 130.868 449.122 140.944 463.966 147.824C531.296 179.016 537.491 246.08 594.237 254.671C655.687 263.964 688.225 237.342 699.315 219.174C713.522 195.896 736.668 135.854 675.201 96.0922C650.231 79.9406 625.538 62.6736 606.924 41.0419C579.052 8.6569 577.953 -41.9029 611.825 -70.114C635.045 -89.4426 671.263 -97.2117 686.751 -121.639C697.156 -138.051 695.153 -158.82 685.423 -175.422C675.692 -192.017 659.155 -204.922 641.289 -215.265" stroke="#F13ABC" stroke-miterlimit="10"/>
<path d="M19.1125 269.734C15.731 241.926 45.8962 217.063 77.9156 211.457C109.935 205.852 141.219 213.798 172.299 219.157C203.379 224.516 237.017 226.349 262.406 211.415C294.839 192.299 303.069 151.948 336.526 132.464C363.184 117.019 397.175 118.907 425.197 127.765C441.297 132.858 455.689 142.301 471.227 149.266C537.121 178.788 544.128 243.655 599.644 252.134C659.355 261.232 691.753 236 703.301 218.1C717.939 195.417 740.006 137.571 681.879 98.1954C657.913 81.9625 634.105 64.3301 615.79 42.8344C588.731 11.2182 587.253 -37.5379 619.195 -65.4607C641.299 -84.7769 676.188 -93.3017 691.61 -117.416C702.198 -133.896 701.005 -154.391 692.442 -171.143C683.811 -188.052 668.49 -201.738 651.286 -212.895" stroke="#F13ABC" stroke-miterlimit="10"/>
<path d="M20.5469 271.053C18.3444 242.442 48.3134 216.395 81.2492 210.176C114.185 203.958 145.212 211.958 176.316 217.906C206.688 223.714 239.853 226.548 265.196 213.042C297.536 195.747 307.386 157.428 340.86 138.262C368.023 122.709 401.502 122.975 430.108 130.463C446.826 134.839 462.273 143.672 478.514 150.716C542.91 178.649 550.782 241.229 605.068 249.604C663.048 258.506 695.287 234.659 707.304 217.034C722.363 194.954 743.369 139.264 688.583 100.314C665.621 83.9914 642.708 66.0014 624.673 44.6341C598.435 13.7785 596.579 -33.1817 626.582 -60.7922C647.57 -80.104 681.129 -89.3766 696.495 -113.171C707.266 -129.727 706.882 -149.956 699.497 -166.849C691.955 -184.081 677.86 -198.547 661.318 -210.511" stroke="#F13ABC" stroke-miterlimit="10"/>
<path d="M21.9827 272.372C20.959 242.95 50.7233 215.744 84.5841 208.896C116.141 202.513 149.215 210.11 180.334 216.648C210.35 222.951 242.682 226.748 267.977 214.671C300.235 199.187 311.724 162.956 345.187 144.061C372.883 128.423 405.849 127.028 435.002 133.161C452.356 136.812 468.831 145.045 485.794 152.174C548.638 178.584 557.437 238.812 610.493 247.082C666.744 255.789 698.824 233.325 711.309 215.975C726.771 194.484 746.741 140.917 695.28 102.432C673.302 85.9975 651.357 67.6321 633.557 46.4342C608.232 16.2811 605.897 -28.8408 633.98 -56.1314C653.851 -75.4468 686.016 -85.4894 701.382 -108.941C712.289 -125.588 712.779 -145.544 706.543 -162.562C700.101 -180.133 687.222 -195.355 671.352 -208.134" stroke="#F13ABC" stroke-miterlimit="10"/>
<path d="M23.4188 273.683C23.5739 243.449 53.1429 215.092 87.9195 207.615C119.631 200.798 153.21 208.254 184.353 215.398C214.021 222.196 245.51 226.947 270.768 216.306C302.934 202.635 316.072 168.484 349.514 149.868C377.743 134.144 410.223 131.063 439.905 135.876C457.906 138.792 475.398 146.441 493.074 153.64C554.322 178.591 564.093 236.41 615.919 244.568C670.439 253.072 702.343 232 715.315 214.925C731.179 194.029 750.123 142.537 701.977 104.567C680.983 88.0113 659.971 69.3112 642.433 48.2503C617.957 18.8411 615.206 -24.5 641.36 -51.4546C660.124 -70.7897 690.933 -81.5554 706.251 -104.694C717.322 -121.418 718.667 -141.132 713.572 -158.267C708.246 -176.193 696.567 -192.156 681.359 -205.748" stroke="#F13ABC" stroke-miterlimit="10"/>
<path d="M24.8554 275.002C26.1987 243.965 55.563 214.449 91.2553 206.334C123.122 199.09 157.204 206.398 188.372 214.139C217.693 221.425 248.368 227.185 273.551 217.934C305.662 206.138 320.42 174.019 353.841 155.659C382.612 139.858 414.615 135.058 444.8 138.566C463.463 140.732 481.948 147.814 500.344 155.082C559.951 178.639 570.739 233.977 621.327 242.03C674.116 250.339 705.852 230.651 719.301 213.851C735.559 193.542 753.493 144.078 708.656 106.678C688.645 89.9855 668.557 70.9589 651.299 50.0424C627.664 21.3854 624.495 -20.2068 648.73 -46.8017C666.377 -66.1722 695.839 -77.6533 711.119 -100.464C722.364 -117.256 724.563 -136.745 720.601 -153.988C716.391 -172.285 705.902 -188.98 691.374 -203.379" stroke="#F13ABC" stroke-miterlimit="10"/>
<path d="M26.2917 276.321C28.8138 244.473 57.9832 213.821 94.5908 205.053C126.613 197.391 161.208 204.534 192.401 212.889C221.373 220.654 251.206 227.392 276.351 219.569C308.37 209.594 324.787 179.553 358.178 161.466C387.482 145.587 419.026 139.045 449.713 141.272C469.04 142.679 488.506 149.21 507.633 156.539C565.574 178.752 577.404 231.567 626.762 239.508C677.812 247.622 709.371 229.317 723.307 212.792C739.948 193.072 756.909 145.579 715.353 108.796C696.316 91.9439 677.162 72.6225 660.184 51.8423C637.389 23.9375 633.793 -15.9295 656.119 -42.1409C672.658 -61.5551 700.774 -73.7356 715.997 -96.2342C727.415 -113.102 730.487 -132.374 727.639 -149.701C724.564 -168.37 715.255 -185.789 701.39 -201.002" stroke="#F13ABC" stroke-miterlimit="10"/>
<path d="M27.7262 277.641C31.4272 244.988 60.411 213.201 97.9245 203.781C130.103 195.699 165.2 202.663 196.418 211.647C225.043 219.875 254.033 227.615 279.131 221.205C311.068 213.058 329.133 185.105 362.503 167.273C392.35 151.317 423.433 143 454.605 143.979C474.604 144.603 495.045 150.615 514.902 157.998C571.139 178.913 584.049 229.15 632.167 236.987C681.487 244.905 712.86 227.977 727.292 211.734C744.308 192.603 760.33 147.031 722.039 110.923C703.976 93.8865 685.755 74.2942 669.049 53.6507C647.084 26.4983 643.062 -11.6673 663.488 -37.4718C678.908 -56.9532 705.688 -69.8095 720.864 -91.9959C732.455 -108.94 736.419 -127.995 734.666 -145.414C732.743 -164.471 724.598 -182.605 711.395 -198.624" stroke="#F13ABC" stroke-miterlimit="10"/>
<path d="M29.1626 278.952C34.0424 245.488 62.8315 212.574 101.26 202.492C133.603 194.008 169.203 200.775 200.437 210.381C228.713 219.072 256.862 227.807 281.913 222.825C313.758 216.499 333.491 190.632 366.821 173.064C397.21 157.038 427.833 146.923 459.499 146.67C480.17 146.504 501.576 152.013 522.182 159.448C576.69 179.116 590.704 226.724 637.593 234.457C685.183 242.172 716.36 226.628 731.297 210.668C748.67 192.117 763.807 148.402 728.736 113.034C711.645 95.7972 694.35 75.9501 677.933 55.4429C656.8 29.0508 652.331 -7.44488 670.877 -32.8188C685.17 -52.3753 710.622 -65.9076 725.742 -87.7736C737.507 -104.786 742.379 -123.641 741.704 -141.135C740.952 -160.581 733.951 -179.421 721.419 -196.255" stroke="#F13ABC" stroke-miterlimit="10"/>
<path d="M30.5983 280.271C36.6662 245.996 65.2609 211.97 104.595 201.219C137.094 192.332 173.205 198.895 204.455 209.138C232.384 218.285 259.691 228.022 284.704 224.469C316.457 219.963 337.857 196.191 371.157 178.871C402.098 162.775 432.259 150.838 464.403 149.384C485.754 148.411 508.107 153.442 529.462 160.914C582.223 179.374 597.351 224.323 643.019 231.943C688.878 239.463 719.85 225.296 735.303 209.625C753.031 191.648 767.328 149.74 735.433 115.177C719.324 97.7155 702.955 77.6456 686.809 57.267C666.507 31.6273 661.572 -3.21389 678.257 -28.1339C691.421 -47.7893 715.556 -61.966 730.62 -83.5116C742.567 -100.6 748.349 -119.247 748.742 -136.824C749.18 -156.659 743.296 -176.213 731.435 -193.854" stroke="#F13ABC" stroke-miterlimit="10"/>
<path d="M32.0349 281.59C39.2817 246.511 67.6913 211.366 107.931 199.938C140.595 190.665 177.208 196.999 208.474 207.88C236.064 217.482 262.52 228.213 287.487 226.096C319.147 223.411 342.215 201.742 375.475 184.67C406.959 168.513 436.658 154.729 469.297 152.082C491.32 150.295 514.63 154.871 536.732 162.364C587.72 179.657 603.997 221.897 648.427 229.421C692.556 236.746 723.313 223.948 739.29 208.567C757.365 191.163 770.876 150.997 742.112 117.295C726.993 99.5779 711.532 79.3095 695.675 59.0671C676.195 34.188 670.776 0.969875 685.627 -23.473C697.645 -43.2429 720.482 -58.0404 735.479 -79.2814C747.6 -96.4384 754.328 -114.886 755.762 -132.545C757.408 -152.769 752.631 -173.03 741.433 -191.485" stroke="#F13ABC" stroke-miterlimit="10"/>
<path d="M33.4691 282.901C41.8947 247.011 70.1196 210.77 111.264 198.65C144.094 188.981 181.218 195.096 212.491 206.622C239.741 216.663 265.337 228.413 290.276 227.724C321.834 226.851 346.58 207.292 379.809 190.469C411.845 174.25 441.073 158.604 474.198 154.781C496.893 152.163 521.151 156.308 544.01 163.814C593.207 179.972 610.651 219.472 653.851 226.891C696.24 234.021 726.793 222.584 743.293 207.5C761.714 190.662 774.503 152.181 748.816 119.414C734.705 101.416 720.126 80.9812 704.558 60.867C685.9 36.7565 679.968 5.13027 693.014 -18.8122C703.857 -38.7118 725.424 -54.123 740.364 -75.0515C752.668 -92.2849 760.342 -110.525 762.807 -128.258C765.679 -148.873 761.992 -169.846 751.465 -189.108" stroke="#F13ABC" stroke-miterlimit="10"/>
<path d="M34.9053 284.22C44.5191 247.527 72.5499 210.182 114.6 197.377C147.595 187.329 185.229 193.191 216.51 205.371C243.43 215.852 268.166 228.612 293.058 229.36C324.524 230.299 350.947 212.851 384.127 196.268C416.715 179.987 445.461 162.464 479.092 157.479C502.448 154.024 527.656 157.762 551.281 165.272C598.678 180.328 617.281 217.134 659.267 224.369C699.91 231.368 730.255 221.228 747.289 206.442C766.038 190.161 778.194 153.307 755.504 121.532C742.427 103.221 728.712 82.653 713.433 62.667C695.588 39.3253 689.114 9.2678 700.394 -14.1434C710.052 -34.1883 730.358 -50.1895 745.233 -70.8054C757.719 -88.1072 766.349 -106.14 769.836 -123.963C773.944 -144.968 771.336 -166.647 761.471 -186.723" stroke="#F13ABC" stroke-miterlimit="10"/>
<path d="M36.3415 285.539C47.1341 248.034 74.9896 209.602 117.935 196.096C151.105 185.669 189.24 191.279 220.529 204.121C247.109 215.032 270.994 228.811 295.84 230.988C327.213 233.74 355.314 218.41 388.454 202.067C421.594 185.732 449.849 166.307 483.987 160.186C508.003 155.876 534.152 159.239 558.551 166.73C604.132 180.707 623.927 214.725 664.674 221.848C705.422 228.971 733.708 219.864 751.276 205.384C770.353 189.661 781.958 154.376 762.182 123.659C750.176 105.002 737.279 84.3332 722.3 64.4752C705.267 41.8943 698.215 13.3985 707.764 -9.47444C716.201 -29.6797 735.283 -46.2638 750.102 -66.5673C762.771 -83.9375 772.375 -101.756 776.865 -119.668C782.227 -141.048 780.68 -163.455 771.487 -184.337" stroke="#F13ABC" stroke-miterlimit="10"/>
<path d="M37.7779 286.859C49.7494 248.55 77.4298 209.029 121.271 194.815C154.616 184.009 193.261 189.351 224.548 202.871C250.807 214.213 273.823 229.003 298.631 232.623C329.912 237.188 359.691 223.976 392.781 207.874C426.474 191.485 454.228 170.151 488.89 162.892C513.559 157.729 540.649 160.741 565.84 168.187C609.596 181.127 630.592 212.307 670.11 219.326C707.292 225.933 737.18 218.492 755.291 204.325C774.695 189.144 785.841 155.394 768.889 125.786C757.999 106.765 745.875 86.0209 731.185 66.2831C714.956 44.4793 707.297 17.5139 715.154 -4.80569C722.331 -25.1863 740.237 -42.3307 754.98 -62.3292C767.832 -79.7599 778.419 -97.3723 783.903 -115.382C790.538 -137.136 790.025 -160.264 781.503 -181.96" stroke="#F13ABC" stroke-miterlimit="10"/>
<path d="M39.2123 288.17C52.3627 249.05 79.8772 208.449 124.604 193.535C158.125 182.357 197.288 187.423 228.565 201.613C254.493 213.378 276.65 229.194 301.411 234.251C332.6 240.62 364.056 229.535 397.107 213.673C430.157 197.811 458.596 173.98 493.783 165.591C519.103 159.558 547.135 162.251 573.109 169.638C615.03 181.555 637.227 209.882 675.515 216.796C710.967 223.201 740.613 217.113 759.276 203.259C778.998 188.62 789.795 156.362 775.565 127.897C765.865 108.479 754.432 87.6858 740.049 68.0758C724.624 47.0409 716.312 21.6072 722.522 -0.152296C728.394 -20.7151 745.169 -38.4128 759.837 -58.0985C772.881 -75.5978 784.443 -92.9878 790.93 -111.102C798.847 -133.216 799.367 -157.08 791.507 -179.59" stroke="#F13ABC" stroke-miterlimit="10"/>
<path d="M40.6487 289.489C54.987 249.558 82.3267 207.885 127.949 192.254C161.645 180.713 201.327 185.495 232.593 200.362C258.209 212.542 279.487 229.386 304.212 235.887C335.317 244.06 368.442 235.109 401.443 219.472C436.258 202.983 462.974 177.792 498.696 168.289C524.648 161.379 553.624 163.793 580.398 171.087C620.476 182.015 643.892 207.456 680.95 214.266C714.672 220.467 744.074 215.718 763.29 202.192C782.506 188.667 793.879 157.303 782.281 130.015C773.843 110.174 763.018 89.3657 748.943 69.8755C734.313 49.6179 725.301 25.709 729.92 4.50823C734.44 -16.2355 750.132 -34.4879 764.733 -53.8688C777.96 -71.4366 790.515 -88.5966 797.987 -106.816C807.186 -129.289 808.739 -153.897 801.551 -177.214" stroke="#F13ABC" stroke-miterlimit="10"/>
<path d="M42.0851 290.808C57.6024 250.073 84.7765 207.328 131.285 190.981C165.155 179.069 205.366 183.558 236.612 199.112C261.906 211.707 282.333 229.545 306.994 237.523C338.033 247.452 372.809 240.684 405.77 225.279C441.147 208.744 467.325 181.621 503.59 170.996C530.175 163.208 560.095 165.367 587.669 172.553C625.905 182.507 650.555 204.983 686.367 211.752C718.366 217.694 747.518 214.339 767.286 201.142C787.055 187.945 798.055 158.25 788.969 132.142C781.913 111.868 771.578 91.0623 757.819 71.6836C744.06 52.305 734.235 29.8202 737.3 9.17718C740.413 -11.7462 755.076 -30.5545 769.602 -49.6305C783.021 -67.259 796.569 -84.1891 805.016 -102.529C815.517 -125.346 818.084 -150.705 811.557 -174.836" stroke="#F13ABC" stroke-miterlimit="10"/>
<path d="M43.5211 292.119C60.2172 250.573 87.2352 206.771 134.62 189.692C168.675 177.416 209.413 181.605 240.631 197.854C265.622 210.855 285.171 229.736 309.785 239.15C340.732 250.892 377.195 246.25 410.097 231.078C446.036 214.504 471.666 185.426 508.493 173.702C535.712 165.037 566.557 166.981 594.949 174.011C631.343 183.023 657.211 202.565 691.784 209.231C722.052 214.977 750.952 212.936 771.282 200.084C791.613 187.232 802.351 159.209 795.657 134.269C790.093 113.558 780.137 92.7587 766.685 73.4918C753.635 54.7969 743.105 33.9568 744.671 13.8462C746.313 -7.24711 760.02 -26.6133 774.471 -45.3924C788.091 -63.0818 802.623 -79.7737 812.044 -98.2337C823.847 -121.387 827.419 -147.513 821.564 -172.451" stroke="#F13ABC" stroke-miterlimit="10"/>
<path d="M44.9559 293.438C62.8402 251.088 89.6836 206.223 137.954 188.411C172.194 175.78 213.458 179.653 244.648 196.595C269.326 210.003 287.998 229.927 312.565 240.77C343.429 254.324 381.599 251.872 414.423 236.869C450.962 220.32 476.005 189.223 513.386 176.393C541.218 166.835 573.01 168.619 602.227 175.453C636.78 183.531 663.865 200.131 697.208 206.693C725.746 212.244 754.393 211.517 775.286 199.009C796.243 186.468 806.767 160.197 802.352 136.371C798.429 115.236 788.684 94.4314 775.568 75.2757C763.304 57.3662 751.955 38.0858 752.058 18.4908C752.173 -2.74714 765.017 -22.6815 779.347 -41.1704C793.197 -58.8976 808.694 -75.3668 819.08 -93.9629C832.194 -117.445 836.77 -144.338 831.587 -170.09" stroke="#F13ABC" stroke-miterlimit="10"/>
<path d="M46.3921 294.757C65.4552 251.596 92.1811 205.736 141.289 187.138C175.733 174.191 217.515 177.707 248.667 195.353C273.051 209.167 290.827 230.142 315.348 242.414C346.119 257.788 385.957 257.431 418.74 242.676C455.832 226.065 480.318 193.037 518.28 179.099C546.726 168.649 579.447 170.322 609.497 176.911C642.219 184.086 670.511 197.722 702.624 204.171C729.432 209.519 757.817 210.098 779.282 197.951C800.747 185.803 811.278 161.279 809.049 138.498C806.934 116.973 797.225 96.1363 784.453 77.0914C772.965 59.9676 760.772 42.2875 759.447 23.1674C757.973 1.81825 769.962 -18.7403 784.234 -36.9248C798.267 -54.7283 814.767 -70.9279 826.128 -89.6684C840.553 -113.47 846.133 -141.147 841.612 -167.705" stroke="#F13ABC" stroke-miterlimit="10"/>
<path d="M47.8276 296.077C68.0695 252.104 94.6106 205.14 144.624 185.857C179.233 172.515 221.579 175.738 252.685 194.102C276.766 208.315 293.664 230.341 318.138 244.049C348.826 261.236 390.323 262.989 423.076 248.482C460.71 231.81 484.65 196.85 523.183 181.805C552.243 170.462 585.876 172.088 616.777 178.377C647.668 184.666 677.166 195.312 708.041 201.665C733.109 206.818 761.25 208.695 783.278 196.908C804.841 185.372 815.885 162.485 815.736 140.64C815.588 118.795 805.756 97.8573 793.319 78.9156C782.599 62.5777 769.533 46.5385 766.817 27.8603C763.699 6.4413 774.877 -14.7904 789.093 -32.6624C803.309 -50.5344 820.821 -66.4727 833.147 -85.3493C848.893 -109.464 855.468 -137.923 851.618 -165.296" stroke="#F13ABC" stroke-miterlimit="10"/>
</g>
</svg>
