<svg width="27" height="20" viewBox="0 0 27 20" fill="none" xmlns="http://www.w3.org/2000/svg">
<path d="M19.5335 11.7C19.8335 11.2 20.0001 10.6167 20.0001 9.99998C20.0001 9.38332 19.8335 8.79998 19.5335 8.29998L20.5835 7.24998C20.9168 6.91665 20.9168 6.39998 20.5835 6.06665C20.2501 5.73332 19.7335 5.73332 19.4001 6.06665L18.3501 7.11665C17.8501 6.81665 17.2668 6.64998 16.6501 6.64998C16.0335 6.64998 15.4501 6.81665 14.9501 7.11665L13.9001 6.06665C13.5668 5.73332 13.0501 5.73332 12.7168 6.06665C12.3835 6.39998 12.3835 6.91665 12.7168 7.24998L13.7668 8.29998C13.4668 8.79998 13.3001 9.38332 13.3001 9.99998C13.3001 10.6167 13.4668 11.2 13.7668 11.7L12.7168 12.75C12.3835 13.0833 12.3835 13.6 12.7168 13.9333C13.0501 14.2666 13.5668 14.2666 13.9001 13.9333L14.9501 12.8833C15.4501 13.1833 16.0335 13.35 16.6501 13.35C17.2668 13.35 17.8501 13.1833 18.3501 12.8833L19.4001 13.9333C19.7335 14.2666 20.2501 14.2666 20.5835 13.9333C20.9168 13.6 20.9168 13.0833 20.5835 12.75L19.5335 11.7ZM16.6668 11.6667C15.7501 11.6667 15.0001 10.9167 15.0001 9.99998C15.0001 9.08332 15.7501 8.33332 16.6668 8.33332C17.5835 8.33332 18.3335 9.08332 18.3335 9.99998C18.3335 10.9167 17.5835 11.6667 16.6668 11.6667Z" fill="#160344"/>
<path d="M6.66715 5.83327C6.66715 5.36661 6.30049 4.99994 5.83382 4.99994C5.36715 4.99994 5.00049 5.36661 5.00049 5.83327V14.1666C5.00049 14.6333 5.36715 14.9999 5.83382 14.9999C6.30049 14.9999 6.66715 14.6333 6.66715 14.1666V5.83327Z" fill="#160344"/>
<path d="M0 5C0 2.23333 2.23333 0 5 0H21.6667C24.4333 0 26.6667 2.23333 26.6667 5V15C26.6667 17.7667 24.4333 20 21.6667 20H5C2.23333 20 0 17.7667 0 15V5ZM5 1.66667C3.16667 1.66667 1.66667 3.16667 1.66667 5V15C1.66667 16.8333 3.16667 18.3333 5 18.3333H21.6667C23.5 18.3333 25 16.8333 25 15V5C25 3.16667 23.5 1.66667 21.6667 1.66667H5Z" fill="#160344"/>
</svg>
