<svg width="32" height="32" viewBox="0 0 32 32" fill="none" xmlns="http://www.w3.org/2000/svg">
<g clip-path="url(#clip0_2596_1130)">
<path fill-rule="evenodd" clip-rule="evenodd" d="M32 16C32 13.92 31.584 11.808 30.784 9.888C29.984 7.968 28.8 6.176 27.328 4.672C25.824 3.2 24.064 2.016 22.112 1.216C20.16 0.416 18.08 0 16 0C13.92 0 11.808 0.416 9.888 1.216C7.968 2.016 6.176 3.2 4.672 4.672C3.2 6.176 2.016 7.936 1.216 9.888C0.416 11.84 0 13.92 0 16C0 18.08 0.416 20.192 1.216 22.112C2.016 24.032 3.2 25.824 4.672 27.328C6.144 28.8 7.936 29.984 9.856 30.784C11.776 31.584 13.92 32 16 32C18.08 32 20.192 31.584 22.112 30.784C24.032 29.984 25.824 28.8 27.328 27.328C28.8 25.856 29.984 24.064 30.784 22.144C31.584 20.224 32 18.08 32 16Z" fill="url(#paint0_linear_2596_1130)"/>
<path fill-rule="evenodd" clip-rule="evenodd" d="M15.168 8.76794H16.832V23.2319H15.168V8.76794Z" fill="white"/>
<path fill-rule="evenodd" clip-rule="evenodd" d="M14.2402 15.584V13.856C12.9282 13.216 12.0002 11.84 12.0002 10.272C12.0002 8.06401 13.7922 6.27201 16.0002 6.27201C18.4962 6.27201 20.2882 8.06401 20.2882 10.272C20.2882 10.816 20.1602 11.36 19.9042 12L19.2002 9.69601L17.7922 10.144L19.0402 14.912L23.9042 13.12L23.2962 11.712L21.4722 12.32C21.7922 11.616 21.8562 11.072 21.8562 10.24C21.8562 7.13601 19.3602 4.64001 15.9682 4.64001C12.8642 4.64001 10.3682 7.13601 10.3682 10.24C10.4002 12.736 12.0002 14.848 14.2402 15.584Z" fill="white"/>
<path fill-rule="evenodd" clip-rule="evenodd" d="M17.7602 16.416V18.144C19.0722 18.784 20.0002 20.16 20.0002 21.728C20.0002 23.936 18.2082 25.728 16.0002 25.728C13.5042 25.728 11.7122 23.936 11.7122 21.728C11.7122 21.184 11.8402 20.64 12.0962 20L12.8002 22.304L14.2082 21.856L12.9602 17.088L8.09619 18.88L8.70419 20.288L10.5282 19.68C10.2082 20.384 10.1442 20.928 10.1442 21.76C10.1442 24.864 12.6402 27.36 16.0322 27.36C19.1362 27.36 21.6322 24.864 21.6322 21.76C21.6002 19.264 20.0002 17.152 17.7602 16.416Z" fill="white"/>
</g>
<defs>
<linearGradient id="paint0_linear_2596_1130" x1="0" y1="0" x2="32" y2="32" gradientUnits="userSpaceOnUse">
<stop stop-color="#0077FC"/>
<stop offset="1" stop-color="#095EB5"/>
</linearGradient>
<clipPath id="clip0_2596_1130">
<rect width="32" height="32" fill="white"/>
</clipPath>
</defs>
</svg>
