<svg width="32" height="32" viewBox="0 0 32 32" fill="none" xmlns="http://www.w3.org/2000/svg">
<g clip-path="url(#clip0_488_427)">
<path d="M15.6 4C18.256 4 20.4 6.144 20.4 8.8V10.4H22C23.76 10.4 25.2 11.84 25.2 13.6V24.8C25.2 26.56 23.76 28 22 28H9.2C7.44 28 6 26.56 6 24.8V13.6C6 11.84 7.44 10.4 9.2 10.4H10.8V8.8C10.8 6.144 12.944 4 15.6 4ZM22 12H9.2C8.32 12 7.6 12.72 7.6 13.6V24.8C7.6 25.68 8.32 26.4 9.2 26.4H22C22.88 26.4 23.6 25.68 23.6 24.8V13.6C23.6 12.72 22.88 12 22 12ZM15.6 17.6C16.48 17.6 17.2 18.32 17.2 19.2C17.2 20.08 16.48 20.8 15.6 20.8C14.72 20.8 14 20.08 14 19.2C14 18.32 14.72 17.6 15.6 17.6ZM15.6 5.6C13.84 5.6 12.4 7.04 12.4 8.8V10.4H18.8V8.8C18.8 7.04 17.36 5.6 15.6 5.6Z" fill="#5F08EE"/>
</g>
<defs>
<clipPath id="clip0_488_427">
<rect width="32" height="32" fill="white"/>
</clipPath>
</defs>
</svg>
