<svg width="32" height="32" viewBox="0 0 32 32" fill="none" xmlns="http://www.w3.org/2000/svg">
<g clip-path="url(#clip0_488_400)">
<path d="M22.25 3C21.8359 3 21.5 3.33579 21.5 3.75C21.5 4.16421 21.8359 4.5 22.25 4.5H24.9394L17.75 11.6893L13.7803 7.71968C13.4874 7.42677 13.0126 7.42677 12.7197 7.71968L5.21968 15.2196C4.92677 15.5126 4.92677 15.9874 5.21968 16.2804C5.51257 16.5732 5.98744 16.5732 6.28033 16.2804L13.25 9.31067L17.2196 13.2803C17.5126 13.5732 17.9875 13.5732 18.2804 13.2803L26 5.56066V8.25C26 8.66421 26.3359 9 26.75 9C27.1642 9 27.5 8.66421 27.5 8.25V3.75C27.5 3.33579 27.1642 3 26.75 3H22.25ZM23.75 13.5C23.3359 13.5 23 13.8358 23 14.25V26.25C23 26.6642 23.3359 27 23.75 27C24.1642 27 24.5 26.6642 24.5 26.25V14.25C24.5 13.8358 24.1642 13.5 23.75 13.5ZM11.75 16.5C11.3358 16.5 11 16.8358 11 17.25V26.25C11 26.6642 11.3358 27 11.75 27C12.1642 27 12.5 26.6642 12.5 26.25V17.25C12.5 16.8358 12.1642 16.5 11.75 16.5ZM17 20.25C17 19.8358 17.3359 19.5 17.75 19.5C18.1642 19.5 18.5 19.8358 18.5 20.25V26.25C18.5 26.6642 18.1642 27 17.75 27C17.3359 27 17 26.6642 17 26.25V20.25ZM5 21.75C5 21.3358 5.33579 21 5.75 21C6.16421 21 6.5 21.3358 6.5 21.75V26.25C6.5 26.6642 6.16421 27 5.75 27C5.33579 27 5 26.6642 5 26.25V21.75Z" fill="#5F08EE"/>
</g>
<defs>
<clipPath id="clip0_488_400">
<rect width="32" height="32" fill="white"/>
</clipPath>
</defs>
</svg>
