<svg width="32" height="32" viewBox="0 0 32 32" fill="none" xmlns="http://www.w3.org/2000/svg">
<g clip-path="url(#clip0_488_412)">
<path d="M4.04848 16.642C5.95561 11.6411 10.1724 8 15.9998 8C17.4853 8 18.866 8.23658 20.1306 8.67195C20.0343 8.76697 19.9455 8.87184 19.866 8.98617L19.2041 9.93661C18.4302 9.7071 17.6111 9.56088 16.7498 9.50716V13.1939C16.7498 13.6037 16.414 13.9359 15.9998 13.9359C15.5856 13.9359 15.2498 13.6037 15.2498 13.1939V9.50716C11.8914 9.71666 9.17254 11.3327 7.2934 13.8094C7.34789 13.8323 7.4005 13.8621 7.44999 13.8988L9.69996 15.5683C10.0313 15.8142 10.0985 16.2793 9.84996 16.6071C9.60143 16.9349 9.13133 17.0014 8.79997 16.7555L6.55001 15.086C6.52451 15.0671 6.50057 15.0469 6.4782 15.0255C6.08279 15.695 5.7397 16.4111 5.4519 17.1658C5.30569 17.5493 4.87299 17.7428 4.48544 17.5981C4.0979 17.4534 3.90228 17.0254 4.04848 16.642ZM23.8408 10.9887C23.8624 10.928 23.8813 10.867 23.8972 10.8057C25.6958 12.3108 27.0704 14.3312 27.9515 16.642C28.0977 17.0254 27.9021 17.4534 27.5146 17.5981C27.1271 17.7428 26.6944 17.5493 26.5481 17.1658C26.2603 16.4111 25.9172 15.6949 25.5217 15.0253C25.4993 15.0467 25.4753 15.067 25.4497 15.086L23.1997 16.7555C22.8684 17.0014 22.3983 16.9349 22.1497 16.6071C21.9012 16.2793 21.9684 15.8142 22.2997 15.5683L24.5497 13.8988C24.5993 13.8621 24.652 13.8323 24.7066 13.8093C24.2985 13.2715 23.8509 12.7744 23.3656 12.3233L23.8408 10.9887ZM22.0339 9.5874C22.3692 9.75563 22.5268 10.1434 22.4025 10.4944L18.4455 21.6703C18.2598 22.1947 17.9858 22.6841 17.6349 23.1179C15.9989 25.1413 12.7791 23.3738 13.5994 20.939C13.7466 20.5021 13.9551 20.0873 14.2187 19.7077L21.0765 9.82908C21.2893 9.52251 21.6987 9.41918 22.0339 9.5874ZM19.1258 15.2604L15.4552 20.5478C15.2711 20.813 15.1253 21.103 15.0224 21.4082C14.7238 22.2945 15.8894 22.9011 16.4638 22.1909C16.7087 21.8878 16.9003 21.5459 17.0299 21.1797L19.1258 15.2604Z" fill="#5F08EE"/>
</g>
<defs>
<clipPath id="clip0_488_412">
<rect width="32" height="32" fill="white"/>
</clipPath>
</defs>
</svg>
