<svg width="346" height="346" viewBox="0 0 346 346" fill="none" xmlns="http://www.w3.org/2000/svg">
<path d="M107.98 210.948L102.209 214.704C102.209 214.704 102.222 214.724 102.235 214.745L108.006 210.989C108.006 210.989 107.993 210.968 107.98 210.948Z" fill="#39079B"/>
<path d="M225.252 259.673L225.256 259.657L222.678 255.717L225.252 259.673Z" fill="#39079B"/>
<path d="M219.824 251.332L222.677 255.717L219.824 251.332Z" fill="#39079B"/>
<g opacity="0.3">
<path d="M229.508 285.603C204.81 298.074 175.863 302.576 146.724 296.412C117.591 290.249 92.9679 274.442 75.4145 253.04L82.19 248.631C98.5872 268.312 121.407 282.861 148.383 288.568C175.36 294.274 202.139 290.217 225.106 278.839L229.508 285.603Z" stroke="#160344"/>
<path d="M76.2687 218.939C66.5187 198.489 63.1419 174.787 68.1847 150.948C80.3932 93.2335 137.285 56.2086 194.999 68.4171C218.838 73.4598 239.121 86.1409 253.892 103.342L247.118 107.751C233.506 92.2488 215.001 80.843 193.318 76.2563C139.915 64.9599 87.2983 99.2221 76.0066 152.602C71.42 174.285 74.3501 195.846 83.0165 214.548L76.2687 218.939Z" stroke="#160344"/>
<path d="M97.4529 48.7505L97.4534 48.7502C127.971 30.1973 165.33 22.7153 202.937 30.6705C281.362 47.2599 331.656 124.54 315.076 202.92C307.116 240.549 285.147 271.677 255.826 292.068C253.35 293.774 250.842 295.425 248.289 296.973L248.288 296.974C217.748 315.522 180.411 323.009 142.782 315.049C64.3793 298.464 14.0857 221.184 30.6704 142.782C37.9202 108.51 56.7697 79.6213 82.2406 59.3748L86.6333 66.1244C62.873 85.2584 45.2986 112.369 38.5051 144.485C22.8371 218.554 70.3411 291.576 144.432 307.249C179.895 314.751 215.075 307.737 243.876 290.311L244.318 290.043L244.036 289.61L233.902 274.038C260.898 257.692 281.376 230.683 288.408 197.44C294.119 170.441 290.044 143.636 278.649 120.642L285.424 116.232C297.907 140.954 302.423 169.923 296.256 199.077C289.397 231.502 270.564 258.365 245.379 276.082L244.984 276.359L245.247 276.764L250.743 285.208L251.024 285.641L251.448 285.345C279.045 266.068 299.703 236.741 307.205 201.278C322.873 127.21 275.369 54.1871 201.278 38.5144C165.837 31.0174 130.635 38.026 101.895 55.4892L101.454 55.757L101.735 56.1892L107.318 64.7667L107.581 65.1709L107.994 64.9226C134.392 49.0689 166.58 42.7272 199.005 49.5862C231.43 56.4452 258.293 75.278 276.01 100.464C277.61 102.758 279.157 105.1 280.611 107.502L273.453 112.16L264.876 117.742L264.457 118.015L264.634 118.287L264.632 118.298L264.732 118.466C278.018 140.773 283.284 167.918 277.503 195.249C265.294 252.963 208.403 289.988 150.689 277.779C123.357 271.998 100.67 256.191 85.655 235.009L85.3771 234.617L84.9744 234.879L76.5305 240.375L69.3739 245.032C50.1724 217.438 41.9196 182.303 49.4119 146.885C56.2848 114.394 75.1709 87.4964 100.422 69.7934L100.818 69.5162L100.554 69.1113L94.972 60.5338L90.3165 53.3803C92.6622 51.7719 95.0372 50.2151 97.4529 48.7505ZM269.068 105.48L269.503 105.197L269.204 104.773C252.622 81.3188 227.541 63.7944 197.285 57.3941L197.262 57.3894C133.538 43.9095 70.7183 84.7927 57.2337 148.539C50.8334 178.796 56.7003 208.825 71.4305 233.483L71.697 233.929L72.1325 233.646L80.5764 228.151L87.7003 223.514C89.1583 225.972 90.7321 228.352 92.3801 230.663L92.3802 230.663C106.261 250.111 127.165 264.608 152.326 269.931C205.728 281.227 258.345 246.965 269.637 193.585C274.959 168.424 270.147 143.435 258.008 122.873C256.565 120.408 255.023 118.024 253.367 115.699L260.49 111.063L269.068 105.48Z" stroke="#160344"/>
</g>
</svg>
