<svg width="24" height="50" viewBox="0 0 24 50" fill="none" xmlns="http://www.w3.org/2000/svg">
<path d="M12 30C18.6274 30 24 24.6274 24 18C24 11.3726 18.6274 6 12 6C5.37262 6 0 11.3725 0 18C0 24.6274 5.37253 30 12 30Z" fill="white"/>
<path d="M12.3264 23.6521V29.1799L19.1585 19.5528L12.3264 23.6521ZM18.9102 17.7513L12.3264 6.82001V14.77L18.9102 17.7513Z" fill="#3B3735"/>
<path d="M12.3264 15.3893V22.1594L18.848 18.3706L12.3264 15.3893Z" fill="#1F1D19"/>
<path d="M5.12122 17.7513L11.7049 6.82001V14.77L5.12122 17.7513Z" fill="#959190"/>
<path d="M11.7043 15.3893V22.1594L5.18268 18.3706L11.7043 15.3893Z" fill="#403C3A"/>
<path d="M11.7048 23.6521V29.18L4.87268 19.5528L11.7048 23.6521Z" fill="#959190"/>
</svg>
