<svg width="20" height="25" viewBox="0 0 20 25" fill="none" xmlns="http://www.w3.org/2000/svg">
<path d="M10 0.200012C12.656 0.200012 14.8 2.34401 14.8 5.00001V6.60001H16.4C18.16 6.60001 19.6 8.04001 19.6 9.80001V21C19.6 22.76 18.16 24.2 16.4 24.2H3.6C1.84 24.2 0.400002 22.76 0.400002 21V9.80001C0.400002 8.04001 1.84 6.60001 3.6 6.60001H5.2V5.00001C5.2 2.34401 7.344 0.200012 10 0.200012ZM16.4 8.20001H3.6C2.72 8.20001 2 8.92001 2 9.80001V21C2 21.88 2.72 22.6 3.6 22.6H16.4C17.28 22.6 18 21.88 18 21V9.80001C18 8.92001 17.28 8.20001 16.4 8.20001ZM10 13.8C10.88 13.8 11.6 14.52 11.6 15.4C11.6 16.28 10.88 17 10 17C9.12 17 8.4 16.28 8.4 15.4C8.4 14.52 9.12 13.8 10 13.8ZM10 1.80001C8.24 1.80001 6.8 3.24001 6.8 5.00001V6.60001H13.2V5.00001C13.2 3.24001 11.76 1.80001 10 1.80001Z" fill="#5F08EE"/>
</svg>
