<svg width="32" height="32" viewBox="0 0 32 32" fill="none" xmlns="http://www.w3.org/2000/svg">
<g clip-path="url(#clip0_257_127)">
<path d="M32 0H0V32H32V0Z" fill="white"/>
<path d="M21.952 17.632C22.24 17.152 22.4 16.592 22.4 16C22.4 15.408 22.24 14.848 21.952 14.368L22.96 13.36C23.28 13.04 23.28 12.544 22.96 12.224C22.64 11.904 22.144 11.904 21.824 12.224L20.816 13.232C20.336 12.944 19.776 12.784 19.184 12.784C18.592 12.784 18.032 12.944 17.552 13.232L16.544 12.224C16.224 11.904 15.728 11.904 15.408 12.224C15.088 12.544 15.088 13.04 15.408 13.36L16.416 14.368C16.128 14.848 15.968 15.408 15.968 16C15.968 16.592 16.128 17.152 16.416 17.632L15.408 18.64C15.088 18.96 15.088 19.456 15.408 19.776C15.728 20.096 16.224 20.096 16.544 19.776L17.552 18.768C18.032 19.056 18.592 19.216 19.184 19.216C19.776 19.216 20.336 19.056 20.816 18.768L21.824 19.776C22.144 20.096 22.64 20.096 22.96 19.776C23.28 19.456 23.28 18.96 22.96 18.64L21.952 17.632ZM19.2 17.6C18.32 17.6 17.6 16.88 17.6 16C17.6 15.12 18.32 14.4 19.2 14.4C20.08 14.4 20.8 15.12 20.8 16C20.8 16.88 20.08 17.6 19.2 17.6Z" fill="#5F08EE"/>
<path d="M9.6 12C9.6 11.552 9.248 11.2 8.8 11.2C8.352 11.2 8 11.552 8 12V20C8 20.448 8.352 20.8 8.8 20.8C9.248 20.8 9.6 20.448 9.6 20V12Z" fill="#5F08EE"/>
<path d="M3.20001 11.2C3.20001 8.54399 5.34401 6.39999 8.00001 6.39999H24C26.656 6.39999 28.8 8.54399 28.8 11.2V20.8C28.8 23.456 26.656 25.6 24 25.6H8.00001C5.34401 25.6 3.20001 23.456 3.20001 20.8V11.2ZM8.00001 7.99999C6.24001 7.99999 4.80001 9.43999 4.80001 11.2V20.8C4.80001 22.56 6.24001 24 8.00001 24H24C25.76 24 27.2 22.56 27.2 20.8V11.2C27.2 9.43999 25.76 7.99999 24 7.99999H8.00001Z" fill="#5F08EE"/>
</g>
<defs>
<clipPath id="clip0_257_127">
<rect width="32" height="32" fill="white"/>
</clipPath>
</defs>
</svg>
