<svg width="24" height="24" viewBox="0 0 24 24" fill="none" xmlns="http://www.w3.org/2000/svg">
<g clip-path="url(#clip0_1069_57)">
<mask id="mask0_1069_57" style="mask-type:alpha" maskUnits="userSpaceOnUse" x="0" y="0" width="24" height="24">
<path d="M24 0H0V24H24V0Z" fill="white"/>
</mask>
<g mask="url(#mask0_1069_57)">
<path d="M12.0001 23.6401C18.4287 23.6401 23.6401 18.4287 23.6401 12.0001C23.6401 5.57151 18.4287 0.360107 12.0001 0.360107C5.57151 0.360107 0.360107 5.57151 0.360107 12.0001C0.360107 18.4287 5.57151 23.6401 12.0001 23.6401Z" fill="url(#paint0_linear_1069_57)"/>
<path d="M17.0941 16.6381L13.1581 7.12214C12.9361 6.63014 12.6061 6.39014 12.1711 6.39014H11.8231C11.3881 6.39014 11.0581 6.63014 10.8361 7.12214L9.12309 11.2681H7.82709C7.44009 11.2711 7.12509 11.5831 7.12209 11.9731V11.9821C7.12509 12.3691 7.44009 12.6841 7.82709 12.6871H8.52309L6.88809 16.6381C6.85809 16.7251 6.84009 16.8151 6.84009 16.9081C6.84009 17.1301 6.90909 17.3041 7.03209 17.4391C7.15509 17.5741 7.33209 17.6401 7.55409 17.6401C7.70109 17.6371 7.84209 17.5921 7.95909 17.5051C8.08509 17.4181 8.17209 17.2921 8.24109 17.1481L10.0411 12.6841H11.2891C11.6761 12.6811 11.9911 12.3691 11.9941 11.9791V11.9611C11.9911 11.5741 11.6761 11.2591 11.2891 11.2561H10.6231L11.9971 7.83314L15.7411 17.1451C15.8101 17.2891 15.8971 17.4151 16.0231 17.5021C16.1401 17.5891 16.2841 17.6341 16.4281 17.6371C16.6501 17.6371 16.8241 17.5711 16.9501 17.4361C17.0761 17.3011 17.1421 17.1271 17.1421 16.9051C17.1451 16.8151 17.1301 16.7221 17.0941 16.6381Z" fill="white"/>
</g>
</g>
<defs>
<linearGradient id="paint0_linear_1069_57" x1="20.6787" y1="4.6977" x2="3.3584" y2="19.271" gradientUnits="userSpaceOnUse">
<stop stop-color="#B6509E"/>
<stop offset="1" stop-color="#2EBAC6"/>
</linearGradient>
<clipPath id="clip0_1069_57">
<rect width="24" height="24" fill="white"/>
</clipPath>
</defs>
</svg>
