<svg width="64" height="64" viewBox="0 0 64 64" fill="none" xmlns="http://www.w3.org/2000/svg">
<circle cx="32" cy="32" r="31.5" fill="white" stroke="#E2E2E2"/>
<g clip-path="url(#clip0_257_385)">
<g clip-path="url(#clip1_257_385)">
<path d="M32 44C38.6274 44 44 38.6274 44 32C44 25.3726 38.6274 20 32 20C25.3726 20 20 25.3725 20 32C20 38.6274 25.3725 44 32 44Z" fill="white"/>
<path d="M32.3264 37.6521V43.1799L39.1586 33.5528L32.3264 37.6521ZM38.9102 31.7513L32.3264 20.82V28.77L38.9102 31.7513Z" fill="#3B3735"/>
<path d="M32.3264 29.3893V36.1594L38.8481 32.3706L32.3264 29.3893Z" fill="#1F1D19"/>
<path d="M25.1212 31.7513L31.7049 20.82V28.77L25.1212 31.7513Z" fill="#959190"/>
<path d="M31.7043 29.3893V36.1594L25.1827 32.3706L31.7043 29.3893Z" fill="#403C3A"/>
<path d="M31.7048 37.6521V43.18L24.8727 33.5528L31.7048 37.6521Z" fill="#959190"/>
</g>
</g>
<defs>
<clipPath id="clip0_257_385">
<rect width="24" height="24" fill="white" transform="translate(20 20)"/>
</clipPath>
<clipPath id="clip1_257_385">
<rect width="24" height="24" fill="white" transform="translate(20 20)"/>
</clipPath>
</defs>
</svg>
