<svg width="64" height="64" viewBox="0 0 64 64" fill="none" xmlns="http://www.w3.org/2000/svg">
<circle cx="32" cy="32" r="31.5" fill="white" stroke="#E2E2E2"/>
<g clip-path="url(#clip0_257_267)">
<path d="M32 44C38.6274 44 44 38.6274 44 32C44 25.3726 38.6274 20 32 20C25.3726 20 20 25.3726 20 32C20 38.6274 25.3726 44 32 44Z" fill="#2775C9"/>
<path d="M31.8125 40.625C30.0695 40.625 28.3657 40.1082 26.9165 39.1398C25.4673 38.1715 24.3378 36.7952 23.6708 35.1849C23.0038 33.5746 22.8293 31.8027 23.1693 30.0933C23.5094 28.3838 24.3487 26.8136 25.5811 25.5811C26.8136 24.3487 28.3838 23.5094 30.0933 23.1693C31.8027 22.8293 33.5746 23.0038 35.1849 23.6708C36.7952 24.3378 38.1715 25.4673 39.1398 26.9165C40.1082 28.3657 40.625 30.0696 40.625 31.8125C40.625 34.1497 39.6965 36.3912 38.0439 38.0439C36.3912 39.6965 34.1497 40.625 31.8125 40.625ZM31.2875 28.5425C30.8053 28.5664 30.3495 28.7697 30.0095 29.1125C29.6696 29.4552 29.47 29.9127 29.45 30.395C29.45 31.3025 30.005 31.895 31.1825 32.1425L32.0075 32.3375C32.81 32.525 33.14 32.795 33.14 33.2525C33.14 33.71 32.5625 34.16 31.8125 34.16C31.5461 34.1844 31.2782 34.1334 31.0395 34.0127C30.8007 33.892 30.6008 33.7065 30.4625 33.4775C30.4215 33.3906 30.3569 33.3171 30.2759 33.2653C30.195 33.2136 30.1011 33.1857 30.005 33.185H29.5625C29.5285 33.1913 29.496 33.2043 29.467 33.2232C29.438 33.2421 29.4131 33.2665 29.3935 33.2951C29.374 33.3237 29.3603 33.3558 29.3533 33.3897C29.3463 33.4236 29.346 33.4585 29.3525 33.4925C29.4603 33.9324 29.7109 34.3242 30.0651 34.6065C30.4193 34.8887 30.8571 35.0456 31.31 35.0525V35.6825C31.31 35.8227 31.3657 35.9572 31.4649 36.0564C31.564 36.1555 31.6985 36.2113 31.8387 36.2113C31.979 36.2113 32.1135 36.1555 32.2126 36.0564C32.3118 35.9572 32.3675 35.8227 32.3675 35.6825V35.045C32.8796 35.0392 33.3692 34.8337 33.732 34.4723C34.0948 34.1109 34.3022 33.6221 34.31 33.11C34.31 32.1575 33.7625 31.61 32.465 31.3325L31.715 31.1675C30.965 30.98 30.6125 30.7325 30.6125 30.3125C30.6125 29.8925 31.0625 29.4275 31.8125 29.4275C32.0487 29.4028 32.287 29.4471 32.4986 29.5549C32.7102 29.6627 32.8861 29.8294 33.005 30.035C33.0532 30.1377 33.1295 30.2246 33.2251 30.2856C33.3207 30.3467 33.4316 30.3794 33.545 30.38H33.8975C33.9776 30.3604 34.0469 30.3101 34.0904 30.24C34.1338 30.1699 34.1481 30.0855 34.13 30.005C34.0284 29.5988 33.8011 29.2351 33.4806 28.9658C33.16 28.6964 32.7626 28.5351 32.345 28.505V27.9875C32.345 27.8473 32.2893 27.7128 32.1901 27.6136C32.091 27.5145 31.9565 27.4588 31.8162 27.4588C31.676 27.4588 31.5415 27.5145 31.4424 27.6136C31.3432 27.7128 31.2875 27.8473 31.2875 27.9875V28.5425ZM25.205 31.8125C25.2059 33.1941 25.6407 34.5404 26.4482 35.6614C27.2556 36.7825 28.3949 37.6215 29.705 38.06H29.81C29.8995 38.06 29.9854 38.0244 30.0486 37.9612C30.1119 37.8979 30.1475 37.812 30.1475 37.7225V37.565C30.1477 37.4254 30.1065 37.2889 30.0291 37.1727C29.9517 37.0565 29.8415 36.966 29.7125 36.9125C28.6922 36.5007 27.8183 35.7933 27.2028 34.8813C26.5874 33.9692 26.2586 32.894 26.2586 31.7938C26.2586 30.6935 26.5874 29.6183 27.2028 28.7062C27.8183 27.7942 28.6922 27.0868 29.7125 26.675C29.8409 26.6229 29.9508 26.5337 30.0283 26.4188C30.1057 26.3039 30.1473 26.1686 30.1475 26.03V25.8575C30.148 25.8069 30.1362 25.7568 30.1133 25.7117C30.0903 25.6665 30.0568 25.6276 30.0156 25.5982C29.9744 25.5687 29.9267 25.5497 29.8765 25.5426C29.8264 25.5355 29.7752 25.5406 29.7275 25.5575C28.412 25.9926 27.267 26.8311 26.4551 27.9539C25.6433 29.0768 25.2059 30.4269 25.205 31.8125ZM38.42 31.8125C38.4176 30.4322 37.982 29.0875 37.1746 27.968C36.3673 26.8485 35.2289 26.0106 33.92 25.5725H33.8075C33.714 25.5725 33.6243 25.6096 33.5582 25.6757C33.4921 25.7419 33.455 25.8315 33.455 25.925V26.0375C33.458 26.1822 33.5028 26.3228 33.584 26.4426C33.6652 26.5624 33.7793 26.6561 33.9125 26.7125C34.9305 27.1255 35.802 27.8329 36.4157 28.7441C37.0293 29.6553 37.3571 30.7289 37.3571 31.8275C37.3571 32.9261 37.0293 33.9997 36.4157 34.9109C35.802 35.8221 34.9305 36.5295 33.9125 36.9425C33.7818 36.9995 33.6701 37.0925 33.5904 37.2108C33.5106 37.329 33.4663 37.4675 33.4625 37.61V37.7375C33.4631 37.7931 33.4769 37.8478 33.5027 37.897C33.5285 37.9463 33.5656 37.9887 33.611 38.0209C33.6563 38.0531 33.7086 38.0741 33.7636 38.0822C33.8187 38.0903 33.8748 38.0853 33.9275 38.0675C35.2374 37.6273 36.3759 36.7866 37.182 35.6642C37.9882 34.5418 38.4212 33.1944 38.42 31.8125Z" fill="white"/>
</g>
<defs>
<clipPath id="clip0_257_267">
<rect width="24" height="24" fill="white" transform="translate(20 20)"/>
</clipPath>
</defs>
</svg>
