<svg width="64" height="64" viewBox="0 0 64 64" fill="none" xmlns="http://www.w3.org/2000/svg">
<circle cx="32" cy="32" r="31.5" fill="white" stroke="#E2E2E2"/>
<g clip-path="url(#clip0_257_308)">
<g clip-path="url(#clip1_257_308)">
<path d="M32 44C38.6274 44 44 38.6274 44 32C44 25.3726 38.6274 20 32 20C25.3726 20 20 25.3726 20 32C20 38.6274 25.3726 44 32 44Z" fill="#26A17B"/>
<path fill-rule="evenodd" clip-rule="evenodd" d="M33.4415 33.0373V33.0358C33.359 33.0418 32.9337 33.0673 31.985 33.0673C31.2275 33.0673 30.6942 33.0448 30.5067 33.0358V33.038C27.5907 32.9098 25.4142 32.402 25.4142 31.7945C25.4142 31.1878 27.5907 30.68 30.5067 30.5495V32.5325C30.6972 32.546 31.2432 32.5783 31.9977 32.5783C32.903 32.5783 33.3567 32.5408 33.4415 32.5333V30.551C36.3515 30.6808 38.5227 31.1885 38.5227 31.7945C38.5227 32.402 36.3515 32.9083 33.4415 33.0373ZM33.4415 30.3448V28.5703H37.502V25.8643H26.4462V28.5703H30.5067V30.344C27.2067 30.4955 24.725 31.1495 24.725 31.9325C24.725 32.7155 27.2067 33.3688 30.5067 33.521V39.2075H33.4415V33.5195C36.7362 33.368 39.212 32.7148 39.212 31.9325C39.212 31.1503 36.7362 30.497 33.4415 30.3448Z" fill="white"/>
</g>
</g>
<defs>
<clipPath id="clip0_257_308">
<rect width="24" height="24" fill="white" transform="translate(20 20)"/>
</clipPath>
<clipPath id="clip1_257_308">
<rect width="24" height="24" fill="white" transform="translate(20 20)"/>
</clipPath>
</defs>
</svg>
